<svg width="96" height="136" viewBox="0 0 96 136" fill="none" xmlns="http://www.w3.org/2000/svg">
<circle cx="48" cy="48" r="48" fill="#FFE1F3"/>
<path d="M48.5012 45.3613C43.4748 45.3613 39.3866 41.2731 39.3866 36.2479C39.3866 31.2227 43.4748 27.1345 48.5012 27.1345C53.5264 27.1345 57.6146 31.2227 57.6146 36.2479C57.6146 41.2731 53.5264 45.3613 48.5012 45.3613ZM55.1502 67.8642H41.851C35.5668 67.8642 30.4538 63.3246 30.4538 57.7456C30.4538 52.1677 35.5668 47.6281 41.851 47.6281H55.1502C61.4332 47.6281 66.5475 52.1677 66.5475 57.7456C66.5475 63.3258 61.4344 67.8642 55.1502 67.8642ZM41.851 50.3109C37.0454 50.3109 33.1353 53.6464 33.1353 57.7468C33.1353 61.8472 37.0454 65.1839 41.851 65.1839H55.1502C59.9546 65.1839 63.8659 61.8484 63.8659 57.7468C63.8659 53.6476 59.9558 50.3109 55.1502 50.3109H41.851Z" fill="#E8235E" fill-opacity="0.7"/>
<path d="M14.7088 128H12.7488L8.31077 121.294V128H6.35077V118.214H8.31077L12.7488 124.934V118.214H14.7088V128ZM22.6797 118.228V119.81H18.6057V122.316H21.7277V123.87H18.6057V128H16.6457V118.228H22.6797ZM30.7195 118.228V119.81H28.1155V128H26.1555V119.81H23.5515V118.228H30.7195ZM41.4775 126.138H37.5855L36.9415 128H34.8835L38.3975 118.214H40.6795L44.1935 128H42.1215L41.4775 126.138ZM40.9455 124.57L39.5315 120.482L38.1175 124.57H40.9455ZM48.741 126.194L50.701 120.244H52.787L49.917 128H47.537L44.681 120.244H46.781L48.741 126.194ZM53.3839 124.094C53.3839 123.31 53.5379 122.615 53.8459 122.008C54.1632 121.401 54.5879 120.935 55.1199 120.608C55.6612 120.281 56.2632 120.118 56.9259 120.118C57.5045 120.118 58.0085 120.235 58.4379 120.468C58.8765 120.701 59.2265 120.995 59.4879 121.35V120.244H61.4619V128H59.4879V126.866C59.2359 127.23 58.8859 127.533 58.4379 127.776C57.9992 128.009 57.4905 128.126 56.9119 128.126C56.2585 128.126 55.6612 127.958 55.1199 127.622C54.5879 127.286 54.1632 126.815 53.8459 126.208C53.5379 125.592 53.3839 124.887 53.3839 124.094ZM59.4879 124.122C59.4879 123.646 59.3945 123.24 59.2079 122.904C59.0212 122.559 58.7692 122.297 58.4519 122.12C58.1345 121.933 57.7939 121.84 57.4299 121.84C57.0659 121.84 56.7299 121.929 56.4219 122.106C56.1139 122.283 55.8619 122.545 55.6659 122.89C55.4792 123.226 55.3859 123.627 55.3859 124.094C55.3859 124.561 55.4792 124.971 55.6659 125.326C55.8619 125.671 56.1139 125.937 56.4219 126.124C56.7392 126.311 57.0752 126.404 57.4299 126.404C57.7939 126.404 58.1345 126.315 58.4519 126.138C58.7692 125.951 59.0212 125.69 59.2079 125.354C59.3945 125.009 59.4879 124.598 59.4879 124.122ZM65.6582 121.854V125.606C65.6582 125.867 65.7188 126.059 65.8402 126.18C65.9708 126.292 66.1855 126.348 66.4842 126.348H67.3942V128H66.1622C64.5102 128 63.6842 127.197 63.6842 125.592V121.854H62.7602V120.244H63.6842V118.326H65.6582V120.244H67.3942V121.854H65.6582ZM68.2999 124.094C68.2999 123.31 68.4539 122.615 68.7619 122.008C69.0792 121.401 69.5039 120.935 70.0359 120.608C70.5772 120.281 71.1792 120.118 71.8419 120.118C72.4206 120.118 72.9246 120.235 73.3539 120.468C73.7926 120.701 74.1426 120.995 74.4039 121.35V120.244H76.3779V128H74.4039V126.866C74.1519 127.23 73.8019 127.533 73.3539 127.776C72.9152 128.009 72.4066 128.126 71.8279 128.126C71.1746 128.126 70.5772 127.958 70.0359 127.622C69.5039 127.286 69.0792 126.815 68.7619 126.208C68.4539 125.592 68.2999 124.887 68.2999 124.094ZM74.4039 124.122C74.4039 123.646 74.3106 123.24 74.1239 122.904C73.9372 122.559 73.6852 122.297 73.3679 122.12C73.0506 121.933 72.7099 121.84 72.3459 121.84C71.9819 121.84 71.6459 121.929 71.3379 122.106C71.0299 122.283 70.7779 122.545 70.5819 122.89C70.3952 123.226 70.3019 123.627 70.3019 124.094C70.3019 124.561 70.3952 124.971 70.5819 125.326C70.7779 125.671 71.0299 125.937 71.3379 126.124C71.6552 126.311 71.9912 126.404 72.3459 126.404C72.7099 126.404 73.0506 126.315 73.3679 126.138C73.6852 125.951 73.9372 125.69 74.1239 125.354C74.3106 125.009 74.4039 124.598 74.4039 124.122ZM80.2522 121.448C80.5042 121.037 80.8308 120.715 81.2322 120.482C81.6428 120.249 82.1095 120.132 82.6322 120.132V122.19H82.1142C81.4982 122.19 81.0315 122.335 80.7142 122.624C80.4062 122.913 80.2522 123.417 80.2522 124.136V128H78.2922V120.244H80.2522V121.448ZM86.9203 128.126C86.2857 128.126 85.7163 128.014 85.2123 127.79C84.7083 127.557 84.307 127.244 84.0083 126.852C83.719 126.46 83.5603 126.026 83.5323 125.55H85.5063C85.5437 125.849 85.6883 126.096 85.9403 126.292C86.2017 126.488 86.5237 126.586 86.9063 126.586C87.2797 126.586 87.569 126.511 87.7743 126.362C87.989 126.213 88.0963 126.021 88.0963 125.788C88.0963 125.536 87.9657 125.349 87.7043 125.228C87.4523 125.097 87.0463 124.957 86.4863 124.808C85.9077 124.668 85.4317 124.523 85.0583 124.374C84.6943 124.225 84.377 123.996 84.1063 123.688C83.845 123.38 83.7143 122.965 83.7143 122.442C83.7143 122.013 83.8357 121.621 84.0783 121.266C84.3303 120.911 84.685 120.631 85.1423 120.426C85.609 120.221 86.155 120.118 86.7803 120.118C87.7043 120.118 88.4417 120.351 88.9923 120.818C89.543 121.275 89.8463 121.896 89.9023 122.68H88.0263C87.9983 122.372 87.8677 122.129 87.6343 121.952C87.4103 121.765 87.107 121.672 86.7243 121.672C86.3697 121.672 86.0943 121.737 85.8983 121.868C85.7117 121.999 85.6183 122.181 85.6183 122.414C85.6183 122.675 85.749 122.876 86.0103 123.016C86.2717 123.147 86.6777 123.282 87.2283 123.422C87.7883 123.562 88.2503 123.707 88.6143 123.856C88.9783 124.005 89.291 124.239 89.5523 124.556C89.823 124.864 89.963 125.275 89.9723 125.788C89.9723 126.236 89.8463 126.637 89.5943 126.992C89.3517 127.347 88.997 127.627 88.5303 127.832C88.073 128.028 87.5363 128.126 86.9203 128.126Z" fill="black"/>
</svg>
