<svg width="218" height="112" viewBox="0 0 218 112" fill="none" xmlns="http://www.w3.org/2000/svg">
<g filter="url(#filter0_d_1_2773)">
<rect x="30" y="16" width="158" height="52" rx="9" fill="url(#paint0_linear_1_2773)"/>
<path d="M67.1959 38.352V41.616H71.0359V43.104H67.1959V46.512H71.5159V48H65.3719V36.864H71.5159V38.352H67.1959ZM77.5385 43.536L80.3865 48H78.3225L76.4185 45.008L74.6265 48H72.7225L75.5705 43.664L72.7225 39.184H74.7865L76.6905 42.176L78.4825 39.184H80.3865L77.5385 43.536ZM83.5709 40.48C83.8802 40.0747 84.3015 39.7333 84.8349 39.456C85.3682 39.1787 85.9709 39.04 86.6429 39.04C87.4109 39.04 88.1095 39.232 88.7389 39.616C89.3789 39.9893 89.8802 40.5173 90.2429 41.2C90.6055 41.8827 90.7869 42.6667 90.7869 43.552C90.7869 44.4373 90.6055 45.232 90.2429 45.936C89.8802 46.6293 89.3789 47.1733 88.7389 47.568C88.1095 47.952 87.4109 48.144 86.6429 48.144C85.9709 48.144 85.3735 48.0107 84.8509 47.744C84.3282 47.4667 83.9015 47.1253 83.5709 46.72V52.192H81.7469V39.184H83.5709V40.48ZM88.9309 43.552C88.9309 42.944 88.8029 42.4213 88.5469 41.984C88.3015 41.536 87.9709 41.2 87.5549 40.976C87.1495 40.7413 86.7122 40.624 86.2429 40.624C85.7842 40.624 85.3469 40.7413 84.9309 40.976C84.5255 41.2107 84.1949 41.552 83.9389 42C83.6935 42.448 83.5709 42.976 83.5709 43.584C83.5709 44.192 83.6935 44.7253 83.9389 45.184C84.1949 45.632 84.5255 45.9733 84.9309 46.208C85.3469 46.4427 85.7842 46.56 86.2429 46.56C86.7122 46.56 87.1495 46.4427 87.5549 46.208C87.9709 45.9627 88.3015 45.6107 88.5469 45.152C88.8029 44.6933 88.9309 44.16 88.9309 43.552ZM94.4146 36.16V48H92.5906V36.16H94.4146ZM100.633 48.144C99.8014 48.144 99.0494 47.9573 98.3774 47.584C97.7054 47.2 97.1774 46.6667 96.7934 45.984C96.4094 45.2907 96.2174 44.4907 96.2174 43.584C96.2174 42.688 96.4147 41.8933 96.8094 41.2C97.204 40.5067 97.7427 39.9733 98.4254 39.6C99.108 39.2267 99.8707 39.04 100.713 39.04C101.556 39.04 102.319 39.2267 103.001 39.6C103.684 39.9733 104.223 40.5067 104.617 41.2C105.012 41.8933 105.209 42.688 105.209 43.584C105.209 44.48 105.007 45.2747 104.601 45.968C104.196 46.6613 103.641 47.2 102.937 47.584C102.244 47.9573 101.476 48.144 100.633 48.144ZM100.633 46.56C101.103 46.56 101.54 46.448 101.945 46.224C102.361 46 102.697 45.664 102.953 45.216C103.209 44.768 103.337 44.224 103.337 43.584C103.337 42.944 103.215 42.4053 102.969 41.968C102.724 41.52 102.399 41.184 101.993 40.96C101.588 40.736 101.151 40.624 100.681 40.624C100.212 40.624 99.7747 40.736 99.3694 40.96C98.9747 41.184 98.66 41.52 98.4254 41.968C98.1907 42.4053 98.0734 42.944 98.0734 43.584C98.0734 44.5333 98.3134 45.2693 98.7934 45.792C99.284 46.304 99.8974 46.56 100.633 46.56ZM108.837 40.464C109.103 40.016 109.455 39.6693 109.893 39.424C110.341 39.168 110.869 39.04 111.477 39.04V40.928H111.013C110.298 40.928 109.754 41.1093 109.381 41.472C109.018 41.8347 108.837 42.464 108.837 43.36V48H107.013V39.184H108.837V40.464ZM121.233 43.376C121.233 43.7067 121.212 44.0053 121.169 44.272H114.433C114.486 44.976 114.748 45.5413 115.217 45.968C115.686 46.3947 116.262 46.608 116.945 46.608C117.926 46.608 118.62 46.1973 119.025 45.376H120.993C120.726 46.1867 120.241 46.8533 119.537 47.376C118.844 47.888 117.98 48.144 116.945 48.144C116.102 48.144 115.345 47.9573 114.673 47.584C114.012 47.2 113.489 46.6667 113.105 45.984C112.732 45.2907 112.545 44.4907 112.545 43.584C112.545 42.6773 112.726 41.8827 113.089 41.2C113.462 40.5067 113.98 39.9733 114.641 39.6C115.313 39.2267 116.081 39.04 116.945 39.04C117.777 39.04 118.518 39.2213 119.169 39.584C119.82 39.9467 120.326 40.4587 120.689 41.12C121.052 41.7707 121.233 42.5227 121.233 43.376ZM119.329 42.8C119.318 42.128 119.078 41.5893 118.609 41.184C118.14 40.7787 117.558 40.576 116.865 40.576C116.236 40.576 115.697 40.7787 115.249 41.184C114.801 41.5787 114.534 42.1173 114.449 42.8H119.329Z" fill="white"/>
<path d="M147.577 45.5774C147.252 45.9028 147.252 46.4305 147.577 46.7559C147.903 47.0814 148.43 47.0814 148.756 46.7559L152.923 42.5893C153.248 42.2638 153.248 41.7362 152.923 41.4107L148.756 37.2441C148.43 36.9186 147.903 36.9186 147.577 37.2441C147.252 37.5695 147.252 38.0972 147.577 38.4226L150.321 41.1667H135.667C135.206 41.1667 134.833 41.5398 134.833 42C134.833 42.4602 135.206 42.8333 135.667 42.8333H150.321L147.577 45.5774Z" fill="white"/>
</g>
<defs>
<filter id="filter0_d_1_2773" x="0" y="0" width="218" height="112" filterUnits="userSpaceOnUse" color-interpolation-filters="sRGB">
<feFlood flood-opacity="0" result="BackgroundImageFix"/>
<feColorMatrix in="SourceAlpha" type="matrix" values="0 0 0 0 0 0 0 0 0 0 0 0 0 0 0 0 0 0 127 0" result="hardAlpha"/>
<feOffset dy="14"/>
<feGaussianBlur stdDeviation="15"/>
<feColorMatrix type="matrix" values="0 0 0 0 0.7 0 0 0 0 0.0495833 0 0 0 0 0.283733 0 0 0 0.16 0"/>
<feBlend mode="normal" in2="BackgroundImageFix" result="effect1_dropShadow_1_2773"/>
<feBlend mode="normal" in="SourceGraphic" in2="effect1_dropShadow_1_2773" result="shape"/>
</filter>
<linearGradient id="paint0_linear_1_2773" x1="109" y1="16" x2="109" y2="68" gradientUnits="userSpaceOnUse">
<stop stop-color="#D24C9F"/>
<stop offset="1" stop-color="#A22873"/>
</linearGradient>
</defs>
</svg>
