<svg width="169" height="112" viewBox="0 0 169 112" fill="none" xmlns="http://www.w3.org/2000/svg">
<g filter="url(#filter0_d_1_2974)">
<path d="M30 25C30 20.0294 34.0294 16 39 16H130C134.971 16 139 20.0294 139 25V59C139 63.9706 134.971 68 130 68H39C34.0294 68 30 63.9706 30 59V25Z" fill="url(#paint0_linear_1_2974)"/>
<path d="M68.9812 48.112C68.2345 48.112 67.5625 47.984 66.9652 47.728C66.3679 47.4613 65.8985 47.088 65.5572 46.608C65.2159 46.128 65.0452 45.568 65.0452 44.928H66.9972C67.0399 45.408 67.2265 45.8027 67.5572 46.112C67.8985 46.4213 68.3732 46.576 68.9812 46.576C69.6105 46.576 70.1012 46.4267 70.4532 46.128C70.8052 45.8187 70.9812 45.424 70.9812 44.944C70.9812 44.5707 70.8692 44.2667 70.6452 44.032C70.4319 43.7973 70.1599 43.616 69.8292 43.488C69.5092 43.36 69.0612 43.2213 68.4852 43.072C67.7599 42.88 67.1679 42.688 66.7092 42.496C66.2612 42.2933 65.8772 41.984 65.5572 41.568C65.2372 41.152 65.0772 40.5973 65.0772 39.904C65.0772 39.264 65.2372 38.704 65.5572 38.224C65.8772 37.744 66.3252 37.376 66.9012 37.12C67.4772 36.864 68.1439 36.736 68.9012 36.736C69.9785 36.736 70.8585 37.008 71.5412 37.552C72.2345 38.0853 72.6185 38.8213 72.6932 39.76H70.6772C70.6452 39.3547 70.4532 39.008 70.1012 38.72C69.7492 38.432 69.2852 38.288 68.7092 38.288C68.1865 38.288 67.7599 38.4213 67.4292 38.688C67.0985 38.9547 66.9332 39.3387 66.9332 39.84C66.9332 40.1813 67.0345 40.464 67.2372 40.688C67.4505 40.9013 67.7172 41.072 68.0372 41.2C68.3572 41.328 68.7945 41.4667 69.3492 41.616C70.0852 41.8187 70.6825 42.0213 71.1412 42.224C71.6105 42.4267 72.0052 42.7413 72.3252 43.168C72.6559 43.584 72.8212 44.144 72.8212 44.848C72.8212 45.4133 72.6665 45.9467 72.3572 46.448C72.0585 46.9493 71.6159 47.3547 71.0292 47.664C70.4532 47.9627 69.7705 48.112 68.9812 48.112ZM83.0534 43.376C83.0534 43.7067 83.0321 44.0053 82.9894 44.272H76.2534C76.3068 44.976 76.5681 45.5413 77.0374 45.968C77.5068 46.3947 78.0828 46.608 78.7654 46.608C79.7468 46.608 80.4401 46.1973 80.8454 45.376H82.8134C82.5468 46.1867 82.0614 46.8533 81.3574 47.376C80.6641 47.888 79.8001 48.144 78.7654 48.144C77.9228 48.144 77.1654 47.9573 76.4934 47.584C75.8321 47.2 75.3094 46.6667 74.9254 45.984C74.5521 45.2907 74.3654 44.4907 74.3654 43.584C74.3654 42.6773 74.5468 41.8827 74.9094 41.2C75.2828 40.5067 75.8001 39.9733 76.4614 39.6C77.1334 39.2267 77.9014 39.04 78.7654 39.04C79.5974 39.04 80.3388 39.2213 80.9894 39.584C81.6401 39.9467 82.1468 40.4587 82.5094 41.12C82.8721 41.7707 83.0534 42.5227 83.0534 43.376ZM81.1494 42.8C81.1388 42.128 80.8988 41.5893 80.4294 41.184C79.9601 40.7787 79.3788 40.576 78.6854 40.576C78.0561 40.576 77.5174 40.7787 77.0694 41.184C76.6214 41.5787 76.3548 42.1173 76.2694 42.8H81.1494ZM89.2964 39.04C89.9898 39.04 90.6084 39.184 91.1524 39.472C91.7071 39.76 92.1391 40.1867 92.4484 40.752C92.7578 41.3173 92.9124 42 92.9124 42.8V48H91.1044V43.072C91.1044 42.2827 90.9071 41.68 90.5124 41.264C90.1178 40.8373 89.5791 40.624 88.8964 40.624C88.2138 40.624 87.6698 40.8373 87.2644 41.264C86.8698 41.68 86.6724 42.2827 86.6724 43.072V48H84.8484V39.184H86.6724V40.192C86.9711 39.8293 87.3498 39.5467 87.8084 39.344C88.2778 39.1413 88.7738 39.04 89.2964 39.04ZM94.6311 43.552C94.6311 42.6667 94.8124 41.8827 95.1751 41.2C95.5484 40.5173 96.0497 39.9893 96.6791 39.616C97.3191 39.232 98.0284 39.04 98.8071 39.04C99.3831 39.04 99.9484 39.168 100.503 39.424C101.068 39.6693 101.516 40 101.847 40.416V36.16H103.687V48H101.847V46.672C101.548 47.0987 101.132 47.4507 100.599 47.728C100.076 48.0053 99.4737 48.144 98.7911 48.144C98.0231 48.144 97.3191 47.952 96.6791 47.568C96.0497 47.1733 95.5484 46.6293 95.1751 45.936C94.8124 45.232 94.6311 44.4373 94.6311 43.552ZM101.847 43.584C101.847 42.976 101.719 42.448 101.463 42C101.218 41.552 100.892 41.2107 100.487 40.976C100.082 40.7413 99.6444 40.624 99.1751 40.624C98.7057 40.624 98.2684 40.7413 97.8631 40.976C97.4577 41.2 97.1271 41.536 96.8711 41.984C96.6257 42.4213 96.5031 42.944 96.5031 43.552C96.5031 44.16 96.6257 44.6933 96.8711 45.152C97.1271 45.6107 97.4577 45.9627 97.8631 46.208C98.2791 46.4427 98.7164 46.56 99.1751 46.56C99.6444 46.56 100.082 46.4427 100.487 46.208C100.892 45.9733 101.218 45.632 101.463 45.184C101.719 44.7253 101.847 44.192 101.847 43.584Z" fill="white"/>
</g>
<defs>
<filter id="filter0_d_1_2974" x="0" y="0" width="169" height="112" filterUnits="userSpaceOnUse" color-interpolation-filters="sRGB">
<feFlood flood-opacity="0" result="BackgroundImageFix"/>
<feColorMatrix in="SourceAlpha" type="matrix" values="0 0 0 0 0 0 0 0 0 0 0 0 0 0 0 0 0 0 127 0" result="hardAlpha"/>
<feOffset dy="14"/>
<feGaussianBlur stdDeviation="15"/>
<feColorMatrix type="matrix" values="0 0 0 0 0.7 0 0 0 0 0.0495833 0 0 0 0 0.283733 0 0 0 0.16 0"/>
<feBlend mode="normal" in2="BackgroundImageFix" result="effect1_dropShadow_1_2974"/>
<feBlend mode="normal" in="SourceGraphic" in2="effect1_dropShadow_1_2974" result="shape"/>
</filter>
<linearGradient id="paint0_linear_1_2974" x1="84.5" y1="16" x2="84.5" y2="68" gradientUnits="userSpaceOnUse">
<stop stop-color="#D24C9F"/>
<stop offset="1" stop-color="#A22873"/>
</linearGradient>
</defs>
</svg>
