<svg width="185" height="112" viewBox="0 0 185 112" fill="none" xmlns="http://www.w3.org/2000/svg">
<g filter="url(#filter0_d_1_2785)">
<rect x="30" y="16" width="125" height="52" rx="9" fill="url(#paint0_linear_1_2785)"/>
<path d="M71.2953 36.88V44.896C71.2953 45.888 70.9913 46.672 70.3833 47.248C69.7859 47.824 68.9966 48.112 68.0153 48.112C67.0339 48.112 66.2393 47.824 65.6313 47.248C65.0339 46.672 64.7353 45.888 64.7353 44.896H66.5753C66.5859 45.3867 66.7086 45.776 66.9433 46.064C67.1886 46.352 67.5459 46.496 68.0153 46.496C68.4846 46.496 68.8419 46.352 69.0873 46.064C69.3326 45.7653 69.4553 45.376 69.4553 44.896V36.88H71.2953ZM78.0865 48.144C77.2545 48.144 76.5025 47.9573 75.8305 47.584C75.1585 47.2 74.6305 46.6667 74.2465 45.984C73.8625 45.2907 73.6705 44.4907 73.6705 43.584C73.6705 42.688 73.8678 41.8933 74.2625 41.2C74.6572 40.5067 75.1958 39.9733 75.8785 39.6C76.5612 39.2267 77.3238 39.04 78.1665 39.04C79.0092 39.04 79.7718 39.2267 80.4545 39.6C81.1372 39.9733 81.6758 40.5067 82.0705 41.2C82.4652 41.8933 82.6625 42.688 82.6625 43.584C82.6625 44.48 82.4598 45.2747 82.0545 45.968C81.6492 46.6613 81.0945 47.2 80.3905 47.584C79.6972 47.9573 78.9292 48.144 78.0865 48.144ZM78.0865 46.56C78.5558 46.56 78.9932 46.448 79.3985 46.224C79.8145 46 80.1505 45.664 80.4065 45.216C80.6625 44.768 80.7905 44.224 80.7905 43.584C80.7905 42.944 80.6678 42.4053 80.4225 41.968C80.1772 41.52 79.8518 41.184 79.4465 40.96C79.0412 40.736 78.6038 40.624 78.1345 40.624C77.6652 40.624 77.2278 40.736 76.8225 40.96C76.4278 41.184 76.1132 41.52 75.8785 41.968C75.6438 42.4053 75.5265 42.944 75.5265 43.584C75.5265 44.5333 75.7665 45.2693 76.2465 45.792C76.7372 46.304 77.3505 46.56 78.0865 46.56ZM85.3936 38.016C85.063 38.016 84.7856 37.904 84.5616 37.68C84.3376 37.456 84.2256 37.1787 84.2256 36.848C84.2256 36.5173 84.3376 36.24 84.5616 36.016C84.7856 35.792 85.063 35.68 85.3936 35.68C85.7136 35.68 85.9856 35.792 86.2096 36.016C86.4336 36.24 86.5456 36.5173 86.5456 36.848C86.5456 37.1787 86.4336 37.456 86.2096 37.68C85.9856 37.904 85.7136 38.016 85.3936 38.016ZM86.2896 39.184V48H84.4656V39.184H86.2896ZM93.1324 39.04C93.8257 39.04 94.4444 39.184 94.9884 39.472C95.543 39.76 95.975 40.1867 96.2844 40.752C96.5937 41.3173 96.7484 42 96.7484 42.8V48H94.9404V43.072C94.9404 42.2827 94.743 41.68 94.3484 41.264C93.9537 40.8373 93.415 40.624 92.7324 40.624C92.0497 40.624 91.5057 40.8373 91.1004 41.264C90.7057 41.68 90.5084 42.2827 90.5084 43.072V48H88.6844V39.184H90.5084V40.192C90.807 39.8293 91.1857 39.5467 91.6444 39.344C92.1137 39.1413 92.6097 39.04 93.1324 39.04ZM111.215 39.184V48H109.391V46.96C109.103 47.3227 108.725 47.6107 108.255 47.824C107.797 48.0267 107.306 48.128 106.783 48.128C106.09 48.128 105.466 47.984 104.911 47.696C104.367 47.408 103.935 46.9813 103.615 46.416C103.306 45.8507 103.151 45.168 103.151 44.368V39.184H104.959V44.096C104.959 44.8853 105.157 45.4933 105.551 45.92C105.946 46.336 106.485 46.544 107.167 46.544C107.85 46.544 108.389 46.336 108.783 45.92C109.189 45.4933 109.391 44.8853 109.391 44.096V39.184H111.215ZM116.822 48.144C116.129 48.144 115.505 48.0213 114.95 47.776C114.406 47.52 113.974 47.1787 113.654 46.752C113.334 46.3147 113.163 45.8293 113.142 45.296H115.03C115.062 45.6693 115.238 45.984 115.558 46.24C115.889 46.4853 116.299 46.608 116.79 46.608C117.302 46.608 117.697 46.512 117.974 46.32C118.262 46.1173 118.406 45.8613 118.406 45.552C118.406 45.2213 118.246 44.976 117.926 44.816C117.617 44.656 117.121 44.48 116.438 44.288C115.777 44.1067 115.238 43.9307 114.822 43.76C114.406 43.5893 114.043 43.328 113.734 42.976C113.435 42.624 113.286 42.16 113.286 41.584C113.286 41.1147 113.425 40.688 113.702 40.304C113.979 39.9093 114.374 39.6 114.886 39.376C115.409 39.152 116.006 39.04 116.678 39.04C117.681 39.04 118.486 39.296 119.094 39.808C119.713 40.3093 120.043 40.9973 120.086 41.872H118.262C118.23 41.4773 118.07 41.1627 117.782 40.928C117.494 40.6933 117.105 40.576 116.614 40.576C116.134 40.576 115.766 40.6667 115.51 40.848C115.254 41.0293 115.126 41.2693 115.126 41.568C115.126 41.8027 115.211 42 115.382 42.16C115.553 42.32 115.761 42.448 116.006 42.544C116.251 42.6293 116.614 42.7413 117.094 42.88C117.734 43.0507 118.257 43.2267 118.662 43.408C119.078 43.5787 119.435 43.8347 119.734 44.176C120.033 44.5173 120.187 44.9707 120.198 45.536C120.198 46.0373 120.059 46.4853 119.782 46.88C119.505 47.2747 119.11 47.584 118.598 47.808C118.097 48.032 117.505 48.144 116.822 48.144Z" fill="white"/>
</g>
<defs>
<filter id="filter0_d_1_2785" x="0" y="0" width="185" height="112" filterUnits="userSpaceOnUse" color-interpolation-filters="sRGB">
<feFlood flood-opacity="0" result="BackgroundImageFix"/>
<feColorMatrix in="SourceAlpha" type="matrix" values="0 0 0 0 0 0 0 0 0 0 0 0 0 0 0 0 0 0 127 0" result="hardAlpha"/>
<feOffset dy="14"/>
<feGaussianBlur stdDeviation="15"/>
<feColorMatrix type="matrix" values="0 0 0 0 0.7 0 0 0 0 0.0495833 0 0 0 0 0.283733 0 0 0 0.16 0"/>
<feBlend mode="normal" in2="BackgroundImageFix" result="effect1_dropShadow_1_2785"/>
<feBlend mode="normal" in="SourceGraphic" in2="effect1_dropShadow_1_2785" result="shape"/>
</filter>
<linearGradient id="paint0_linear_1_2785" x1="92.5" y1="16" x2="92.5" y2="68" gradientUnits="userSpaceOnUse">
<stop stop-color="#D24C9F"/>
<stop offset="1" stop-color="#A22873"/>
</linearGradient>
</defs>
</svg>
