<svg width="181" height="112" viewBox="0 0 181 112" fill="none" xmlns="http://www.w3.org/2000/svg">
<g filter="url(#filter0_d_1_2787)">
<path d="M30 25C30 20.0294 34.0294 16 39 16H142C146.971 16 151 20.0294 151 25V59C151 63.9706 146.971 68 142 68H39C34.0294 68 30 63.9706 30 59V25Z" fill="url(#paint0_linear_1_2787)"/>
<path d="M74.9246 36.88L70.7486 48H68.6366L64.4446 36.88H66.3966L69.6926 46.128L73.0046 36.88H74.9246ZM80.274 48.144C79.442 48.144 78.69 47.9573 78.018 47.584C77.346 47.2 76.818 46.6667 76.434 45.984C76.05 45.2907 75.858 44.4907 75.858 43.584C75.858 42.688 76.0553 41.8933 76.45 41.2C76.8447 40.5067 77.3833 39.9733 78.066 39.6C78.7487 39.2267 79.5113 39.04 80.354 39.04C81.1967 39.04 81.9593 39.2267 82.642 39.6C83.3247 39.9733 83.8633 40.5067 84.258 41.2C84.6527 41.8933 84.85 42.688 84.85 43.584C84.85 44.48 84.6473 45.2747 84.242 45.968C83.8367 46.6613 83.282 47.2 82.578 47.584C81.8847 47.9573 81.1167 48.144 80.274 48.144ZM80.274 46.56C80.7433 46.56 81.1807 46.448 81.586 46.224C82.002 46 82.338 45.664 82.594 45.216C82.85 44.768 82.978 44.224 82.978 43.584C82.978 42.944 82.8553 42.4053 82.61 41.968C82.3647 41.52 82.0393 41.184 81.634 40.96C81.2287 40.736 80.7913 40.624 80.322 40.624C79.8527 40.624 79.4153 40.736 79.01 40.96C78.6153 41.184 78.3007 41.52 78.066 41.968C77.8313 42.4053 77.714 42.944 77.714 43.584C77.714 44.5333 77.954 45.2693 78.434 45.792C78.9247 46.304 79.538 46.56 80.274 46.56ZM88.7811 40.672V45.552C88.7811 45.8827 88.8558 46.1227 89.0051 46.272C89.1651 46.4107 89.4318 46.48 89.8051 46.48H90.9251V48H89.4851C88.6638 48 88.0345 47.808 87.5971 47.424C87.1598 47.04 86.9411 46.416 86.9411 45.552V40.672H85.9011V39.184H86.9411V36.992H88.7811V39.184H90.9251V40.672H88.7811ZM93.5343 38.016C93.2036 38.016 92.9263 37.904 92.7023 37.68C92.4783 37.456 92.3663 37.1787 92.3663 36.848C92.3663 36.5173 92.4783 36.24 92.7023 36.016C92.9263 35.792 93.2036 35.68 93.5343 35.68C93.8543 35.68 94.1263 35.792 94.3503 36.016C94.5743 36.24 94.6863 36.5173 94.6863 36.848C94.6863 37.1787 94.5743 37.456 94.3503 37.68C94.1263 37.904 93.8543 38.016 93.5343 38.016ZM94.4303 39.184V48H92.6063V39.184H94.4303ZM101.273 39.04C101.966 39.04 102.585 39.184 103.129 39.472C103.684 39.76 104.116 40.1867 104.425 40.752C104.734 41.3173 104.889 42 104.889 42.8V48H103.081V43.072C103.081 42.2827 102.884 41.68 102.489 41.264C102.094 40.8373 101.556 40.624 100.873 40.624C100.19 40.624 99.6463 40.8373 99.241 41.264C98.8463 41.68 98.649 42.2827 98.649 43.072V48H96.825V39.184H98.649V40.192C98.9477 39.8293 99.3263 39.5467 99.785 39.344C100.254 39.1413 100.75 39.04 101.273 39.04ZM110.768 39.04C111.45 39.04 112.053 39.1787 112.576 39.456C113.109 39.7227 113.525 40.0587 113.824 40.464V39.184H115.664V48.144C115.664 48.9547 115.493 49.6747 115.152 50.304C114.81 50.944 114.314 51.4453 113.664 51.808C113.024 52.1707 112.256 52.352 111.36 52.352C110.165 52.352 109.173 52.0693 108.384 51.504C107.594 50.9493 107.146 50.192 107.04 49.232H108.848C108.986 49.6907 109.28 50.0587 109.728 50.336C110.186 50.624 110.73 50.768 111.36 50.768C112.096 50.768 112.688 50.544 113.136 50.096C113.594 49.648 113.824 48.9973 113.824 48.144V46.672C113.514 47.088 113.093 47.44 112.56 47.728C112.037 48.0053 111.44 48.144 110.768 48.144C110 48.144 109.296 47.952 108.656 47.568C108.026 47.1733 107.525 46.6293 107.152 45.936C106.789 45.232 106.608 44.4373 106.608 43.552C106.608 42.6667 106.789 41.8827 107.152 41.2C107.525 40.5173 108.026 39.9893 108.656 39.616C109.296 39.232 110 39.04 110.768 39.04ZM113.824 43.584C113.824 42.976 113.696 42.448 113.44 42C113.194 41.552 112.869 41.2107 112.464 40.976C112.058 40.7413 111.621 40.624 111.152 40.624C110.682 40.624 110.245 40.7413 109.84 40.976C109.434 41.2 109.104 41.536 108.848 41.984C108.602 42.4213 108.48 42.944 108.48 43.552C108.48 44.16 108.602 44.6933 108.848 45.152C109.104 45.6107 109.434 45.9627 109.84 46.208C110.256 46.4427 110.693 46.56 111.152 46.56C111.621 46.56 112.058 46.4427 112.464 46.208C112.869 45.9733 113.194 45.632 113.44 45.184C113.696 44.7253 113.824 44.192 113.824 43.584Z" fill="#121127"/>
</g>
<defs>
<filter id="filter0_d_1_2787" x="0" y="0" width="181" height="112" filterUnits="userSpaceOnUse" color-interpolation-filters="sRGB">
<feFlood flood-opacity="0" result="BackgroundImageFix"/>
<feColorMatrix in="SourceAlpha" type="matrix" values="0 0 0 0 0 0 0 0 0 0 0 0 0 0 0 0 0 0 127 0" result="hardAlpha"/>
<feOffset dy="14"/>
<feGaussianBlur stdDeviation="15"/>
<feColorMatrix type="matrix" values="0 0 0 0 0.7 0 0 0 0 0.0495833 0 0 0 0 0.283733 0 0 0 0.16 0"/>
<feBlend mode="normal" in2="BackgroundImageFix" result="effect1_dropShadow_1_2787"/>
<feBlend mode="normal" in="SourceGraphic" in2="effect1_dropShadow_1_2787" result="shape"/>
</filter>
<linearGradient id="paint0_linear_1_2787" x1="90.5" y1="16" x2="90.5" y2="68" gradientUnits="userSpaceOnUse">
<stop stop-color="white"/>
<stop offset="1" stop-color="#F3E0E6"/>
</linearGradient>
</defs>
</svg>
