<svg width="32" height="32" viewBox="0 0 32 32" fill="none" xmlns="http://www.w3.org/2000/svg">
<rect width="32" height="32" rx="5" fill="#121127" fill-opacity="0.08"/>
<path d="M23.7693 20.4682L15.9572 18.1916C15.6501 18.1022 15.3787 17.9045 15.1851 17.6292C14.9915 17.3538 14.8865 17.0164 14.8866 16.6691C14.8873 16.2219 15.0502 15.7932 15.3396 15.4769C15.629 15.1607 16.0214 14.9827 16.4307 14.9819H23.4728C23.6093 14.9819 23.7402 14.9227 23.8367 14.8172C23.9332 14.7117 23.9874 14.5687 23.9874 14.4195C23.9874 14.2704 23.9332 14.1274 23.8367 14.0219C23.7402 13.9164 23.6093 13.8572 23.4728 13.8571H16.4307C15.7481 13.8571 15.0936 14.1534 14.6109 14.6808C14.1283 15.2081 13.8572 15.9234 13.8572 16.6691C13.8572 17.2641 14.037 17.8424 14.3687 18.3142C14.7004 18.786 15.1655 19.1248 15.6916 19.2781L23.5037 21.5547C23.6347 21.5904 23.7733 21.5684 23.8896 21.4935C24.0059 21.4185 24.0906 21.2967 24.1255 21.1541C24.1603 21.0116 24.1425 20.8598 24.0759 20.7315C24.0092 20.6032 23.8991 20.5086 23.7693 20.4682V20.4682Z" fill="#B15B90"/>
<path d="M16.4285 16.8571C16.4285 16.9134 16.4395 16.9692 16.4611 17.0211C16.4826 17.0731 16.5142 17.1204 16.554 17.1602C16.5938 17.2 16.641 17.2316 16.693 17.2531C16.745 17.2746 16.8008 17.2857 16.857 17.2857C16.9133 17.2857 16.9691 17.2746 17.0211 17.2531C17.0731 17.2316 17.1203 17.2 17.1601 17.1602C17.1999 17.1204 17.2315 17.0731 17.253 17.0211C17.2745 16.9692 17.2856 16.9134 17.2856 16.8571C17.2856 16.8009 17.2745 16.7451 17.253 16.6931C17.2315 16.6411 17.1999 16.5939 17.1601 16.5541C17.1203 16.5143 17.0731 16.4827 17.0211 16.4612C16.9691 16.4397 16.9133 16.4286 16.857 16.4286C16.8008 16.4286 16.745 16.4397 16.693 16.4612C16.641 16.4827 16.5938 16.5143 16.554 16.5541C16.5142 16.5939 16.4826 16.6411 16.4611 16.6931C16.4395 16.7451 16.4285 16.8009 16.4285 16.8571V16.8571Z" fill="#B15B90"/>
<path d="M14.7125 9.23461C15.1353 9.15534 15.5641 9.11524 15.9938 9.11479C17.8997 9.11482 19.6319 9.91928 20.8877 11.2242C22.1431 12.5309 22.9264 14.3294 22.9264 16.3183V21.4969C22.9262 21.6822 22.8902 21.8654 22.8207 22.0356C22.7512 22.2057 22.6498 22.3591 22.5228 22.4868L22.5219 22.4877C22.3561 22.6568 22.1515 22.7774 21.9288 22.8386C21.7061 22.8997 21.4721 22.8995 21.2496 22.838L14.7125 9.23461ZM14.7125 9.23461L14.6315 9.25061C12.0309 9.76445 9.88194 11.9002 9.2716 14.5905L9.27156 14.5907C9.13706 15.1807 9.07418 15.758 9.07418 16.3184C9.07413 17.2642 9.25543 18.2004 9.60729 19.0722L9.60755 19.0728C9.75916 19.4522 10.089 19.7431 10.4882 19.8538L21.2494 22.838L14.7125 9.23461ZM16.0003 7.65714L16.0001 7.65714C15.5181 7.65752 15.0371 7.6995 14.562 7.78256L14.5615 7.77992L14.3624 7.81966C14.3416 7.8238 14.3209 7.82803 14.3002 7.83234L14.174 7.85749L14.1744 7.85961C11.0964 8.55323 8.62078 11.0715 7.89211 14.2576C7.73679 14.9326 7.65795 15.6242 7.65718 16.3181V16.3183C7.65718 17.4917 7.88711 18.6106 8.29708 19.6299L8.29717 19.6302C8.62693 20.4471 9.31091 21.0373 10.1179 21.261C10.1179 21.261 10.1179 21.261 10.1179 21.261L20.8775 24.2451C21.116 24.3115 21.3629 24.3429 21.5973 24.3429L21.5977 24.3429C23.074 24.34 24.3429 23.1034 24.3429 21.4977V16.3183C24.3434 11.5477 20.6058 7.65822 16.0003 7.65714Z" fill="#B15B90" stroke="#B15B90" stroke-width="0.4"/>
</svg>
