<svg width="32" height="32" viewBox="0 0 32 32" fill="none" xmlns="http://www.w3.org/2000/svg">
<rect width="32" height="32" rx="5" fill="#121127" fill-opacity="0.08"/>
<g clip-path="url(#clip0_57_1259)">
<path d="M19.1063 21.2312H14.7105C14.1917 21.2312 13.7688 20.8104 13.7688 20.2896C13.7688 19.7687 14.1896 19.3479 14.7105 19.3479H19.1063C19.625 19.3479 20.048 19.7687 20.048 20.2896C20.048 20.8104 19.625 21.2312 19.1063 21.2312ZM17.575 16.8812H13.1792C12.6605 16.8812 12.2375 16.4604 12.2375 15.9396C12.2375 15.4208 12.6584 14.9979 13.1792 14.9979H17.575C18.0938 14.9979 18.5167 15.4187 18.5167 15.9396C18.5167 16.4604 18.0959 16.8812 17.575 16.8812Z" fill="#A22873" fill-opacity="0.7"/>
<path d="M10.8459 25.2917C10.148 25.2917 9.36254 25.2354 8.85421 24.7312C8.58546 24.4646 8.43546 24.1042 8.43546 23.7167C8.47712 20.8771 8.47087 17.7104 8.39379 16.8187L5.99171 14.4167C5.56671 13.9937 5.33337 13.4292 5.33337 12.8292C5.33337 12.2292 5.56671 11.6667 5.99171 11.2437L9.47296 7.76249C9.88337 7.10833 10.6 6.70833 11.3813 6.70833L11.4938 6.71458C11.8125 6.75416 12.6605 6.85416 12.6605 7.71041C12.6605 9.55416 14.1605 11.0542 16.0042 11.0542C17.848 11.0542 19.348 9.55416 19.348 7.71041C19.348 6.86041 20.2105 6.75208 20.4938 6.71666L20.6105 6.70833C20.6459 6.70833 20.6813 6.70833 20.7167 6.71041C21.3375 6.68124 21.9542 6.91874 22.4 7.36458L26.0084 10.9729C26.8834 11.8479 26.8834 13.2729 26.0084 14.1458L23.6084 16.55C23.5375 17.4542 23.5521 20.6708 23.6125 23.5437C23.6125 24.7083 22.6021 25.2875 20.6105 25.2875L11.1563 25.2896C11.0563 25.2896 10.9521 25.2917 10.8459 25.2917V25.2917ZM10.323 23.3854C10.5709 23.4146 10.9313 23.4083 11.1334 23.4062L11.3813 23.4042H20.6125C21.2313 23.4042 21.5605 23.35 21.7271 23.3021C21.575 15.9208 21.7438 15.7521 22.075 15.4208L24.6792 12.8167C24.8209 12.675 24.8209 12.4458 24.6792 12.3042L21.125 8.74999C20.6417 11.1354 18.5292 12.9375 16.0021 12.9375C13.5521 12.9375 11.4917 11.2437 10.9292 8.96666L7.32087 12.5729C7.25212 12.6417 7.21462 12.7312 7.21462 12.8292C7.21462 12.9271 7.25004 13.0146 7.32087 13.0854L9.92712 15.6917C10.2542 16.0187 10.4209 16.1854 10.323 23.3854V23.3854Z" fill="#A22873" fill-opacity="0.7"/>
</g>
<defs>
<clipPath id="clip0_57_1259">
<rect width="21.3333" height="21.3333" fill="white" transform="translate(5.33337 5.33331)"/>
</clipPath>
</defs>
</svg>
