<svg width="32" height="32" viewBox="0 0 32 32" fill="none" xmlns="http://www.w3.org/2000/svg">
<rect width="32" height="32" rx="5" fill="#121127" fill-opacity="0.08"/>
<g clip-path="url(#clip0_95_690)">
<path d="M21.8907 8.50094L21.8907 8.501L22.4087 14.433L23.236 23.9226C23.236 23.9227 23.236 23.9227 23.236 23.9227C23.2735 24.3406 23.1433 24.7555 22.8762 25.0802C22.6127 25.4013 22.2269 25.6015 21.8115 25.6367L21.8907 8.50094ZM21.8907 8.50094L21.8723 8.29203V8.2847H21.8729L21.8717 8.27354L21.7498 7.18855C21.6879 6.62902 21.2137 6.20681 20.6525 6.20423H20.652H11.4153C10.8504 6.20423 10.3792 6.63222 10.3174 7.19089L10.3174 7.19104L10.1745 8.50119L10.1739 8.50113V8.51204V8.51942L9.23441 19.3245L9.23403 19.3244V19.3331V19.3335L8.83365 23.925C8.83364 23.925 8.83364 23.9251 8.83364 23.9251C8.75612 24.7911 9.39203 25.5519 10.2576 25.6319L10.2581 25.632L13.8042 25.9437L13.8042 25.9437L13.8067 25.9439C13.8447 25.9463 13.8917 25.9488 13.9372 25.9488C14.7189 25.9488 15.3892 25.3604 15.4918 24.5774L15.4918 24.5771L16.035 20.3526L16.5801 24.5771M21.8907 8.50094L21.8112 25.6367L18.2701 25.9484L18.2666 25.9487L18.2666 25.9486L18.2596 25.949C18.2179 25.9512 18.1752 25.9535 18.1301 25.9535C17.3453 25.9535 16.6802 25.3597 16.5801 24.5771M16.5801 24.5771L16.6793 24.5644L16.5802 24.5772L16.5801 24.5771ZM21.6932 24.2726L21.6937 24.2725C21.7501 24.2678 21.8036 24.2393 21.8415 24.1949C21.8758 24.1546 21.8942 24.099 21.8949 24.0341L20.9888 13.6179C20.0631 13.5543 19.1925 13.1493 18.546 12.4818C17.949 11.8724 17.5756 11.0833 17.4817 10.2425H14.593C14.5 11.084 14.1283 11.8738 13.5306 12.4819C12.8841 13.147 12.0158 13.5519 11.0902 13.6177L10.5872 19.4078V19.4081V19.4169L10.5868 19.4168L10.1837 24.0357C10.1837 24.0358 10.1837 24.0359 10.1837 24.036C10.1742 24.1546 10.2625 24.2589 10.3791 24.2703C10.3792 24.2703 10.3794 24.2703 10.3795 24.2703L13.9202 24.5843L13.928 24.585L13.9327 24.5862L13.939 24.5863C14.048 24.5842 14.1369 24.5023 14.1496 24.3977L14.1497 24.3969L15.3637 14.959C15.3637 14.959 15.3637 14.959 15.3637 14.9589C15.4022 14.6511 15.6442 14.4091 15.9521 14.3706M21.6932 24.2726L15.9645 14.4699M21.6932 24.2726L18.1551 24.584C18.1461 24.5843 18.1385 24.5853 18.1349 24.5858L18.1341 24.5859C18.1328 24.586 18.1318 24.5861 18.1312 24.5862C18.0243 24.5833 17.9349 24.5031 17.9224 24.3978L17.9223 24.3969L16.7082 14.9589L21.6932 24.2726ZM15.9521 14.3706L15.9645 14.4699M15.9521 14.3706C15.9521 14.3706 15.952 14.3706 15.952 14.3706L15.9645 14.4699M15.9521 14.3706C16.3235 14.3239 16.6615 14.588 16.7082 14.9589L16.7082 14.9587L16.609 14.9714C16.5692 14.655 16.2809 14.43 15.9645 14.4699M20.8598 12.2343C19.8539 12.0674 19.0391 11.2509 18.8503 10.2527C18.8504 10.2526 18.8505 10.2525 18.8506 10.2525C18.8541 10.2492 18.8573 10.2458 18.8601 10.2424L20.6061 10.2403L20.8598 12.2343ZM13.2197 10.2507C13.032 11.2494 12.2186 12.0654 11.2121 12.2341L11.4636 10.2402H13.2096C13.2124 10.2435 13.2155 10.2468 13.2191 10.2501C13.2193 10.2503 13.2195 10.2505 13.2197 10.2507ZM11.6452 7.5597H20.4269L20.4778 8.88001H11.5964L11.6452 7.5597Z" fill="#B15B90" stroke="#B15B90" stroke-width="0.2"/>
</g>
<defs>
<clipPath id="clip0_95_690">
<rect width="21.3333" height="21.3333" fill="white" transform="translate(4.99976 5.00034)"/>
</clipPath>
</defs>
</svg>
