<svg width="17" height="24" viewBox="0 0 17 24" fill="none" xmlns="http://www.w3.org/2000/svg">
<path d="M13 10.6409C13 6.97908 10.0841 4 6.5 4C2.91587 4 0 6.97908 0 10.6409C0 14.0034 2.45931 16.7883 5.63637 17.2214V18.6651H3.00543C2.52849 18.6651 2.1418 19.06 2.1418 19.5475C2.1418 20.0349 2.52849 20.4298 3.00543 20.4298H5.63637V23.1176C5.63637 23.6051 6.02306 24 6.5 24C6.97694 24 7.36363 23.6051 7.36363 23.1176V20.4298H9.99457C10.4715 20.4298 10.8582 20.0349 10.8582 19.5475C10.8582 19.06 10.4715 18.6651 9.99457 18.6651H7.36363V17.2214C10.5407 16.7883 13 14.0034 13 10.6409ZM6.5 15.5171C3.86835 15.5171 1.72726 13.3296 1.72726 10.6409C1.72726 7.95221 3.86835 5.7647 6.5 5.7647C9.13164 5.7647 11.2727 7.95221 11.2727 10.6409C11.2727 13.3296 9.13168 15.5171 6.5 15.5171Z" fill="#B15B90"/>
<path d="M11.0908 7.07071L11.0555 7.03536L9.96464 5.94452L9.92929 5.90916L9.96464 5.87381L13.2457 2.59273L12.0308 2.59275C11.8039 2.59275 11.5985 2.50074 11.4499 2.3522C11.3014 2.20366 11.2094 1.9982 11.2095 1.77144M11.0908 7.07071L15.715 1.2475M11.0908 7.07071L11.1262 7.03536L14.4073 3.75427M11.0908 7.07071L14.4073 3.75427M11.2095 1.77144C11.2093 1.31788 11.577 0.950188 12.0306 0.950091L12.0306 0.950091L15.1517 0.95C15.3888 0.95 15.6004 1.05184 15.75 1.21169M11.2095 1.77144C11.2095 1.77143 11.2095 1.77142 11.2095 1.77142L11.2595 1.77144M11.2095 1.77144C11.2095 1.77144 11.2095 1.77145 11.2095 1.77146L11.2595 1.77144M15.75 1.21169C15.7506 1.21227 15.7511 1.21286 15.7517 1.21344L15.715 1.2475M15.75 1.21169C15.7497 1.21139 15.7494 1.21115 15.7491 1.2109L15.715 1.2475M15.75 1.21169C15.7509 1.21243 15.7524 1.21352 15.7554 1.21577L15.7555 1.21588C15.759 1.21849 15.7651 1.22303 15.771 1.22898L15.7711 1.22906C15.777 1.23494 15.7815 1.24096 15.7841 1.24443L15.7842 1.2446C15.7865 1.24761 15.7875 1.24906 15.7883 1.24998M15.715 1.2475C15.7181 1.25034 15.7214 1.25279 15.7247 1.25524C15.7284 1.25807 15.7322 1.2609 15.7357 1.26433C15.7391 1.26775 15.7419 1.27152 15.7447 1.2753C15.7472 1.27859 15.7496 1.28189 15.7525 1.28495M15.7883 1.24998C15.7877 1.24943 15.7871 1.24889 15.7866 1.24835L15.7525 1.28495M15.7883 1.24998C15.7886 1.25034 15.7889 1.25062 15.7891 1.25088L15.7525 1.28495M15.7883 1.24998C15.9482 1.39957 16.05 1.6112 16.05 1.84827V1.84828L16.0499 4.96939V4.9694C16.0498 5.42301 15.6821 5.79074 15.2285 5.79055M15.7525 1.28495C15.9039 1.42581 16 1.62513 16 1.84828L15.2285 5.79055M11.2595 1.77144C11.2593 1.34551 11.6046 1.00018 12.0306 1.00009L11.2595 1.77144ZM14.4073 3.75427L14.4072 4.96916L14.4072 4.96923L14.4073 3.75427ZM14.6832 5.51473L14.6478 5.55004C14.6478 5.55005 14.6478 5.55007 14.6478 5.55008C14.6478 5.5501 14.6478 5.55012 14.6479 5.55013L14.6832 5.51473ZM14.6832 5.51473C14.7547 5.58646 14.8397 5.64334 14.9333 5.68209C15.0269 5.72085 15.1273 5.74071 15.2286 5.74055M14.6832 5.51473L15.2286 5.74055M15.2286 5.74055L15.2285 5.79055M15.2286 5.74055L15.2286 5.79055C15.2286 5.79055 15.2286 5.79055 15.2285 5.79055M13.3664 2.54272L13.2957 2.54272L13.3164 2.59272L13.3664 2.54272Z" fill="#B15B90" stroke="#B15B90" stroke-width="0.1"/>
</svg>
