<svg width="32" height="32" viewBox="0 0 32 32" fill="none" xmlns="http://www.w3.org/2000/svg">
<path d="M18.7221 19.811C18.4941 19.8676 18.2645 19.9178 18.0338 19.9616C16.7814 20.2015 15.4955 20.1966 14.245 19.9471C14.0259 19.9037 13.7159 19.8269 13.3162 19.7184L12.0064 21.4512C8.77367 21.3455 7.54487 19.1408 7.54487 19.1408C7.54487 14.2464 9.65118 10.2785 9.65118 10.2785C11.7575 8.6383 13.7614 8.68317 13.7614 8.68317L14.3346 9.44318C14.3874 9.43564 14.4405 9.43081 14.4938 9.4287C15.5864 9.28129 16.6936 9.28616 17.7849 9.44318L18.4135 8.68317C18.4135 8.68317 20.4188 8.6383 22.5237 10.2799C22.5237 10.2799 24.6314 14.2464 24.6314 19.1408C24.6314 19.1408 23.387 21.3441 20.1543 21.4512L18.7221 19.8096V19.811ZM13.2636 14.6285C12.4089 14.6285 11.7333 15.28 11.7333 16.0762C11.7333 16.8724 12.4231 17.5238 13.2636 17.5238C14.117 17.5238 14.7925 16.8724 14.7925 16.0762C14.8067 15.28 14.1184 14.6285 13.2636 14.6285V14.6285ZM18.7363 14.6285C17.883 14.6285 17.2074 15.28 17.2074 16.0762C17.2074 16.8724 17.8972 17.5238 18.7363 17.5238C19.5911 17.5238 20.2666 16.8724 20.2666 16.0762C20.2666 15.28 19.5911 14.6285 18.7363 14.6285V14.6285ZM28.8 32L21.7031 24.7619H25.9555V4.49521H6.04443V24.7619H21.6931L22.5038 27.6571H6.04443C5.29003 27.6571 4.56654 27.3521 4.0331 26.8091C3.49966 26.2662 3.19998 25.5297 3.19998 24.7619V4.49521C3.19998 4.11501 3.27356 3.73852 3.4165 3.38725C3.55945 3.03599 3.76897 2.71682 4.0331 2.44797C4.29723 2.17912 4.6108 1.96586 4.9559 1.82036C5.30101 1.67486 5.67089 1.59998 6.04443 1.59998H25.9555C26.3291 1.59998 26.699 1.67486 27.0441 1.82036C27.3892 1.96586 27.7027 2.17912 27.9669 2.44797C28.231 2.71682 28.4405 3.03599 28.5835 3.38725C28.7264 3.73852 28.8 4.11501 28.8 4.49521V32V32Z" fill="#121127" fill-opacity="0.4"/>
</svg>
