<svg width="32" height="32" viewBox="0 0 32 32" fill="none" xmlns="http://www.w3.org/2000/svg">
<g clip-path="url(#clip0_1_2977)">
<path d="M32 6.1C30.8 6.6 29.6 7 28.2 7.1C29.6 6.3 30.6 5 31.1 3.5C29.8 4.3 28.4 4.8 26.9 5.1C25.7 3.8 24 3 22.2 3C18.6 3 15.6 5.9 15.6 9.6C15.6 10.1 15.7 10.6 15.8 11.1C10.3 10.8 5.50002 8.2 2.20002 4.2C1.60002 5.2 1.30002 6.3 1.30002 7.5C1.30002 9.8 2.50002 11.8 4.20002 13C3.10002 13 2.10002 12.7 1.20002 12.2V12.3C1.20002 15.5 3.50002 18.1 6.50002 18.7C5.90002 18.8 5.40002 18.9 4.80002 18.9C4.40002 18.9 4.00002 18.9 3.60002 18.8C4.40002 21.4 6.90002 23.3 9.70002 23.4C7.50002 25.2 4.60002 26.2 1.50002 26.2C1.00002 26.2 0.400024 26.2 -0.0999756 26.1C2.90002 27.9 6.40003 29 10.1 29C22.2 29 28.8 19 28.8 10.3C28.8 10 28.8 9.7 28.8 9.5C30 8.5 31.1 7.4 32 6.1Z" fill="#121127" fill-opacity="0.4"/>
</g>
<defs>
<clipPath id="clip0_1_2977">
<rect width="32" height="32" fill="white"/>
</clipPath>
</defs>
</svg>
