<svg width="147" height="32" viewBox="0 0 147 32" fill="none" xmlns="http://www.w3.org/2000/svg">
<g clip-path="url(#clip0_1_2794)">
<path d="M74.3494 7.94348H71.1552V24.7564H74.3494V7.94348Z" fill="#A22873"/>
<path d="M97.6869 7.94348H94.4927V24.7564H97.6869V7.94348Z" fill="#A22873"/>
<path d="M64.9585 7.96619H54.9885V12.4666L63.9615 10.929V20.755L58.1597 21.7413V13.213L54.9885 13.7605V24.7566H64.9585C65.5439 24.7556 66.1052 24.5277 66.5192 24.1228C66.9331 23.7179 67.1662 23.169 67.1672 22.5964V10.1227C67.1662 9.55038 66.933 9.00188 66.5189 8.59757C66.1048 8.19327 65.5436 7.96619 64.9585 7.96619V7.96619Z" fill="#A22873"/>
<path d="M111.63 7.92078H103.838C103.252 7.92078 102.69 8.14837 102.276 8.55349C101.862 8.95861 101.629 9.50807 101.629 10.081V15.3578L104.815 14.8065V11.0561H113.834V10.081C113.834 9.50872 113.602 8.95983 113.189 8.55482C112.775 8.14981 112.215 7.92177 111.63 7.92078V7.92078Z" fill="#A22873"/>
<path d="M101.629 16.648V24.7338H104.819V19.2507L110.475 18.2681V15.1178L101.629 16.648Z" fill="#A22873"/>
<path d="M90.5047 17.2892V14.5927L84.4268 15.6315V18.3205L87.3104 17.8292V17.8405L90.5047 17.2892Z" fill="#A22873"/>
<path d="M87.3105 19.1309V21.6324H81.5049V11.0638H90.5047V10.1037C90.5037 9.53108 90.2706 8.9822 89.8566 8.5773C89.4426 8.17239 88.8814 7.94447 88.296 7.94348H80.5424C79.9572 7.94447 79.3964 8.17251 78.983 8.57752C78.5696 8.98254 78.3375 9.53143 78.3375 10.1037V24.7564H90.5047V18.5796L87.3105 19.1309Z" fill="#A22873"/>
<path d="M129.25 16.2918V11.0413H129.227V10.1037C129.227 9.53078 128.994 8.98132 128.58 8.5762C128.165 8.17108 127.604 7.94348 127.018 7.94348H126.032V16.9894L129.25 16.2918Z" fill="#A22873"/>
<path d="M120.254 19.6147V7.94348H119.287C118.702 7.94447 118.141 8.17251 117.728 8.57752C117.315 8.98254 117.082 9.53143 117.082 10.1037V24.7564H129.25V17.582L120.254 19.6147Z" fill="#A22873"/>
<path d="M144.795 7.94348H134.825V15.4442L138.016 14.7542L143.798 13.4115V24.7714H146.996V10.1037C146.996 9.53207 146.765 8.98374 146.352 8.57884C145.939 8.17394 145.38 7.94547 144.795 7.94348V7.94348Z" fill="#A22873"/>
<path d="M134.814 16.7379V24.7524H138.004V16.0441L134.814 16.7379Z" fill="#A22873"/>
</g>
<g clip-path="url(#clip1_1_2794)">
<path d="M21.5614 31.3267V14.3888L25.4039 13.9579V27.1459L39.251 25.0102C39.3032 25.0029 39.3539 24.9927 39.4047 24.981C42.7262 24.2039 47.4418 20.0991 47.1359 12.1918C47.1026 11.5246 47.0287 10.8598 46.9146 10.2007C46.2475 6.08712 42.1129 3.2298 37.7554 3.75861L12.4176 6.82628C11.3647 6.95483 10.6116 6.26241 10.4763 5.26469C10.4436 5.02637 10.4609 4.78425 10.5272 4.55232C10.5935 4.32038 10.7074 4.10321 10.8625 3.91335C11.0175 3.72348 11.2106 3.56468 11.4305 3.44611C11.6505 3.32753 11.893 3.25153 12.144 3.2225L37.9537 0.0890927C39.467 -0.0968819 41.0041 0.00657907 42.4747 0.393393C43.9453 0.780207 45.3196 1.44256 46.517 2.34152C47.7143 3.24047 48.7104 4.35788 49.4468 5.62803C50.1831 6.89818 50.6449 8.29544 50.8048 9.73764C50.8924 10.5396 50.9585 11.3226 50.9846 12.0588C51.1491 16.3346 50.0624 20.1984 47.8229 23.2325C45.854 25.9057 43.0551 27.7945 40.1348 28.4154L40.0287 28.4344L21.5614 31.3267Z" fill="#FBD237"/>
<path d="M29.6062 22.6964L29.6215 13.4233L33.4641 12.9339L33.4487 18.3389L36.3998 17.8159C36.5759 17.7848 36.7466 17.7307 36.907 17.6552C38.5148 16.8927 38.7515 15.6773 38.8975 14.0806C38.9205 13.8265 38.9282 13.5489 38.9267 13.2611C38.9201 12.8177 38.8148 12.3806 38.6176 11.9787C38.4204 11.5768 38.1358 11.2191 37.7827 10.9293C37.4295 10.6395 37.0157 10.424 36.5686 10.2972C36.1215 10.1704 35.6512 10.135 35.1886 10.1935L9.25443 13.324C9.00524 13.3558 8.75188 13.3407 8.50884 13.2794C8.26581 13.2182 8.03785 13.112 7.83801 12.967C7.63817 12.822 7.47036 12.6409 7.34417 12.4342C7.21799 12.2275 7.1359 11.9992 7.1026 11.7624V11.7624C6.96888 10.7719 7.75583 9.95828 8.80716 9.83119L35.0795 6.57216C35.9766 6.46129 36.888 6.52359 37.7592 6.75533C38.6303 6.98707 39.4433 7.38348 40.1495 7.92084C40.8557 8.45821 41.4405 9.12547 41.869 9.88268C42.2975 10.6399 42.5608 11.4715 42.6432 12.3277C42.721 13.0141 42.7462 13.7049 42.7185 14.3947C42.5648 16.0761 42.2482 19.5762 37.8923 21.2035C37.7772 21.2458 37.6584 21.278 37.5372 21.2999L29.6062 22.6964Z" fill="#FBD237"/>
<path d="M19.3112 31.6832V14.6415L23.1537 14.2033V27.3724L37.0069 25.1943C37.0592 25.1943 37.1099 25.1768 37.1606 25.1651C40.4821 24.385 45.1977 20.4131 44.8919 12.481C44.8579 11.8115 44.784 11.1443 44.6705 10.4827C44.3468 8.49816 43.2199 6.71244 41.5303 5.50647C39.8408 4.30049 37.7222 3.76973 35.6267 4.02742L10.3826 7.11407C10.1322 7.14501 9.87775 7.12868 9.63396 7.06601C9.39017 7.00335 9.16179 6.89558 8.9619 6.74889C8.762 6.6022 8.59453 6.41947 8.46907 6.21116C8.3436 6.00285 8.26262 5.77306 8.23076 5.53496V5.53496C8.1982 5.29704 8.21533 5.05536 8.28117 4.82375C8.347 4.59214 8.46026 4.37514 8.61445 4.18518C8.76864 3.99522 8.96073 3.83603 9.17974 3.71671C9.39874 3.5974 9.64035 3.5203 9.89075 3.48984L35.702 0.344754C37.2176 0.159929 38.7569 0.265164 40.2291 0.654264C41.7013 1.04336 43.0767 1.70846 44.2743 2.61041C45.472 3.51235 46.4676 4.6329 47.2027 5.9061C47.9378 7.17929 48.3975 8.5794 48.5546 10.024C48.6422 10.8289 48.7083 11.6148 48.7329 12.3539C48.8989 16.6428 47.8107 20.5183 45.5728 23.5626C43.6038 26.2446 40.7988 28.1393 37.8769 28.7616L37.7708 28.782L19.3112 31.6832Z" fill="url(#paint0_linear_1_2794)"/>
<path d="M27.3559 23.1113V13.7154L31.1985 13.2217V18.707L34.1496 18.1811C34.3243 18.1503 34.4935 18.0962 34.6522 18.0204C36.2615 17.252 36.4966 16.0249 36.6503 14.4151C36.6734 14.158 36.6811 13.8776 36.6795 13.5883C36.676 13.1427 36.573 12.7029 36.3773 12.2979C36.1817 11.8929 35.8978 11.532 35.5445 11.239C35.1912 10.946 34.7764 10.7276 34.3277 10.5982C33.879 10.4689 33.4065 10.4315 32.9415 10.4885L7.0042 13.6541C6.75393 13.6854 6.4996 13.6695 6.25583 13.6072C6.01206 13.5448 5.78364 13.4374 5.5837 13.2909C5.38375 13.1444 5.21622 12.9619 5.09071 12.7537C4.96521 12.5456 4.88421 12.3159 4.85237 12.0779V12.0779C4.81979 11.8401 4.83687 11.5985 4.90261 11.367C4.96835 11.1354 5.08147 10.9185 5.2355 10.7286C5.38953 10.5386 5.58145 10.3794 5.80028 10.26C6.01911 10.1406 6.26056 10.0634 6.51082 10.0328L32.8339 6.83508C33.7347 6.72621 34.6494 6.79156 35.523 7.02719C36.3966 7.26283 37.2111 7.66389 37.9174 8.20628C38.6238 8.74866 39.2075 9.42117 39.6334 10.1834C40.0594 10.9456 40.3188 11.7818 40.3961 12.6417C40.475 13.3344 40.5007 14.0316 40.4729 14.7278C40.3192 16.4252 40.0026 19.9559 35.6466 21.5935C35.5319 21.6369 35.413 21.6697 35.2916 21.6914L27.3559 23.1113Z" fill="url(#paint1_linear_1_2794)"/>
<path d="M15.2995 21.0102L8.50647 21.8406C7.45405 21.9693 6.71064 22.8845 6.84602 23.8847C6.98139 24.8849 7.9443 25.5914 8.99672 25.4628L15.7897 24.6323C16.8421 24.5036 17.5856 23.5885 17.4502 22.5883C17.3148 21.588 16.3519 20.8815 15.2995 21.0102Z" fill="url(#paint2_linear_1_2794)"/>
<path d="M15.391 15.1346L12.5326 15.4841C11.4802 15.6127 10.7368 16.5279 10.8721 17.5281C11.0075 18.5283 11.9704 19.2349 13.0228 19.1062L15.8812 18.7568C16.9336 18.6281 17.677 17.713 17.5417 16.7127C17.4063 15.7125 16.4434 15.006 15.391 15.1346Z" fill="url(#paint3_linear_1_2794)"/>
<path d="M3.89331 22.6613H3.89178C2.84172 22.6613 1.99048 23.4703 1.99048 24.4683V24.4697C1.99048 25.4677 2.84172 26.2767 3.89178 26.2767H3.89331C4.94337 26.2767 5.79461 25.4677 5.79461 24.4697V24.4683C5.79461 23.4703 4.94337 22.6613 3.89331 22.6613Z" fill="#5AC9E5"/>
<path d="M8.04786 15.9985H8.04632C6.99626 15.9985 6.14502 16.8076 6.14502 17.8055V17.807C6.14502 18.805 6.99626 19.614 8.04632 19.614H8.04786C9.09792 19.614 9.94916 18.805 9.94916 17.807V17.8055C9.94916 16.8076 9.09792 15.9985 8.04786 15.9985Z" fill="#5AC9E5"/>
<path d="M1.90284 10.6521H1.9013C0.85124 10.6521 0 11.4611 0 12.4591V12.4606C0 13.4585 0.85124 14.2676 1.9013 14.2676H1.90284C2.95289 14.2676 3.80413 13.4585 3.80413 12.4606V12.4591C3.80413 11.4611 2.95289 10.6521 1.90284 10.6521Z" fill="#5AC9E5"/>
<path d="M5.27814 4.07117H5.2766C4.22655 4.07117 3.37531 4.88019 3.37531 5.87817V5.87963C3.37531 6.87761 4.22655 7.68663 5.2766 7.68663H5.27814C6.3282 7.68663 7.17944 6.87761 7.17944 5.87963V5.87817C7.17944 4.88019 6.3282 4.07117 5.27814 4.07117Z" fill="#5AC9E5"/>
</g>
<defs>
<linearGradient id="paint0_linear_1_2794" x1="-6.21112" y1="31.112" x2="50.411" y2="0.166869" gradientUnits="userSpaceOnUse">
<stop offset="0.37" stop-color="#E8235D"/>
<stop offset="0.41" stop-color="#D72462"/>
<stop offset="0.5" stop-color="#AD2770"/>
<stop offset="0.6" stop-color="#8B297B"/>
<stop offset="0.69" stop-color="#702B83"/>
<stop offset="0.79" stop-color="#5D2C89"/>
<stop offset="0.89" stop-color="#522D8D"/>
<stop offset="1" stop-color="#4E2D8E"/>
</linearGradient>
<linearGradient id="paint1_linear_1_2794" x1="1181.2" y1="4635.58" x2="8588.73" y2="-3764.91" gradientUnits="userSpaceOnUse">
<stop offset="0.37" stop-color="#E8235D"/>
<stop offset="0.41" stop-color="#D72462"/>
<stop offset="0.5" stop-color="#AD2770"/>
<stop offset="0.6" stop-color="#8B297B"/>
<stop offset="0.69" stop-color="#702B83"/>
<stop offset="0.79" stop-color="#5D2C89"/>
<stop offset="0.89" stop-color="#522D8D"/>
<stop offset="1" stop-color="#4E2D8E"/>
</linearGradient>
<linearGradient id="paint2_linear_1_2794" x1="440.988" y1="1118.5" x2="1987.36" y2="-1232.97" gradientUnits="userSpaceOnUse">
<stop offset="0.37" stop-color="#E8235D"/>
<stop offset="0.41" stop-color="#D72462"/>
<stop offset="0.5" stop-color="#AD2770"/>
<stop offset="0.6" stop-color="#8B297B"/>
<stop offset="0.69" stop-color="#702B83"/>
<stop offset="0.79" stop-color="#5D2C89"/>
<stop offset="0.89" stop-color="#522D8D"/>
<stop offset="1" stop-color="#4E2D8E"/>
</linearGradient>
<linearGradient id="paint3_linear_1_2794" x1="187.97" y1="1011.99" x2="1870.49" y2="-597.19" gradientUnits="userSpaceOnUse">
<stop offset="0.37" stop-color="#E8235D"/>
<stop offset="0.41" stop-color="#D72462"/>
<stop offset="0.5" stop-color="#AD2770"/>
<stop offset="0.6" stop-color="#8B297B"/>
<stop offset="0.69" stop-color="#702B83"/>
<stop offset="0.79" stop-color="#5D2C89"/>
<stop offset="0.89" stop-color="#522D8D"/>
<stop offset="1" stop-color="#4E2D8E"/>
</linearGradient>
<clipPath id="clip0_1_2794">
<rect width="92" height="16.8317" fill="white" transform="translate(55 7.92078)"/>
</clipPath>
<clipPath id="clip1_1_2794">
<rect width="51" height="31.6832" fill="white"/>
</clipPath>
</defs>
</svg>
