<svg width="96" height="136" viewBox="0 0 96 136" fill="none" xmlns="http://www.w3.org/2000/svg">
<circle cx="48" cy="48" r="48" fill="#D0EDFB"/>
<path d="M62.5 29.9H50.5C48.79 29.9 47.4 31.29 47.4 33V45C47.4 46.71 48.79 48.1 50.5 48.1H62.5C64.21 48.1 65.6 46.71 65.6 45V33C65.6 31.29 64.21 29.9 62.5 29.9ZM63.4 45C63.4 45.5 63 45.9 62.5 45.9H50.5C50 45.9 49.6 45.5 49.6 45V33C49.6 32.5 50 32.1 50.5 32.1H62.5C63 32.1 63.4 32.5 63.4 33V45ZM62.5 49.9H50.5C48.79 49.9 47.4 51.29 47.4 53V65C47.4 66.71 48.79 68.1 50.5 68.1H62.5C64.21 68.1 65.6 66.71 65.6 65V53C65.6 51.29 64.21 49.9 62.5 49.9ZM42.5 49.9H30.5C28.79 49.9 27.4 51.29 27.4 53V65C27.4 66.71 28.79 68.1 30.5 68.1H42.5C44.21 68.1 45.6 66.71 45.6 65V53C45.6 51.29 44.21 49.9 42.5 49.9ZM43.4 65C43.4 65.5 43 65.9 42.5 65.9H30.5C30 65.9 29.6 65.5 29.6 65V53C29.6 52.5 30 52.1 30.5 52.1H42.5C43 52.1 43.4 52.5 43.4 53V65Z" fill="#5AC9E5"/>
<path d="M5.62993 128.098C4.71526 128.098 3.87526 127.883 3.10993 127.454C2.3446 127.025 1.73793 126.432 1.28993 125.676C0.84193 124.911 0.61793 124.047 0.61793 123.086C0.61793 122.134 0.84193 121.28 1.28993 120.524C1.73793 119.759 2.3446 119.161 3.10993 118.732C3.87526 118.303 4.71526 118.088 5.62993 118.088C6.55393 118.088 7.39393 118.303 8.14993 118.732C8.91526 119.161 9.51726 119.759 9.95593 120.524C10.4039 121.28 10.6279 122.134 10.6279 123.086C10.6279 124.047 10.4039 124.911 9.95593 125.676C9.51726 126.432 8.91526 127.025 8.14993 127.454C7.3846 127.883 6.5446 128.098 5.62993 128.098ZM5.62993 126.348C6.21793 126.348 6.73593 126.217 7.18393 125.956C7.63193 125.685 7.98193 125.303 8.23393 124.808C8.48593 124.313 8.61193 123.739 8.61193 123.086C8.61193 122.433 8.48593 121.863 8.23393 121.378C7.98193 120.883 7.63193 120.505 7.18393 120.244C6.73593 119.983 6.21793 119.852 5.62993 119.852C5.04193 119.852 4.51926 119.983 4.06193 120.244C3.61393 120.505 3.26393 120.883 3.01193 121.378C2.75993 121.863 2.63393 122.433 2.63393 123.086C2.63393 123.739 2.75993 124.313 3.01193 124.808C3.26393 125.303 3.61393 125.685 4.06193 125.956C4.51926 126.217 5.04193 126.348 5.62993 126.348ZM14.3681 121.854V125.606C14.3681 125.867 14.4288 126.059 14.5501 126.18C14.6808 126.292 14.8955 126.348 15.1941 126.348H16.1041V128H14.8721C13.2201 128 12.3941 127.197 12.3941 125.592V121.854H11.4701V120.244H12.3941V118.326H14.3681V120.244H16.1041V121.854H14.3681ZM21.8819 120.132C22.4699 120.132 22.9925 120.263 23.4499 120.524C23.9072 120.776 24.2619 121.154 24.5139 121.658C24.7752 122.153 24.9059 122.75 24.9059 123.45V128H22.9459V123.716C22.9459 123.1 22.7919 122.629 22.4839 122.302C22.1759 121.966 21.7559 121.798 21.2239 121.798C20.6825 121.798 20.2532 121.966 19.9359 122.302C19.6279 122.629 19.4739 123.1 19.4739 123.716V128H17.5139V117.64H19.4739V121.21C19.7259 120.874 20.0619 120.613 20.4819 120.426C20.9019 120.23 21.3685 120.132 21.8819 120.132ZM33.9797 123.954C33.9797 124.234 33.961 124.486 33.9237 124.71H28.2537C28.3004 125.27 28.4964 125.709 28.8417 126.026C29.187 126.343 29.6117 126.502 30.1157 126.502C30.8437 126.502 31.3617 126.189 31.6697 125.564H33.7837C33.5597 126.311 33.1304 126.927 32.4957 127.412C31.861 127.888 31.0817 128.126 30.1577 128.126C29.411 128.126 28.739 127.963 28.1417 127.636C27.5537 127.3 27.0917 126.829 26.7557 126.222C26.429 125.615 26.2657 124.915 26.2657 124.122C26.2657 123.319 26.429 122.615 26.7557 122.008C27.0824 121.401 27.5397 120.935 28.1277 120.608C28.7157 120.281 29.3924 120.118 30.1577 120.118C30.895 120.118 31.553 120.277 32.1317 120.594C32.7197 120.911 33.1724 121.364 33.4897 121.952C33.8164 122.531 33.9797 123.198 33.9797 123.954ZM31.9497 123.394C31.9404 122.89 31.7584 122.489 31.4037 122.19C31.049 121.882 30.615 121.728 30.1017 121.728C29.6164 121.728 29.2057 121.877 28.8697 122.176C28.543 122.465 28.3424 122.871 28.2677 123.394H31.9497ZM37.3703 121.448C37.6223 121.037 37.949 120.715 38.3503 120.482C38.761 120.249 39.2277 120.132 39.7503 120.132V122.19H39.2323C38.6163 122.19 38.1497 122.335 37.8323 122.624C37.5243 122.913 37.3703 123.417 37.3703 124.136V128H35.4103V120.244H37.3703V121.448ZM47.8504 128.126C47.1038 128.126 46.4318 127.963 45.8344 127.636C45.2371 127.3 44.7658 126.829 44.4204 126.222C44.0844 125.615 43.9164 124.915 43.9164 124.122C43.9164 123.329 44.0891 122.629 44.4344 122.022C44.7891 121.415 45.2698 120.949 45.8764 120.622C46.4831 120.286 47.1598 120.118 47.9064 120.118C48.6531 120.118 49.3298 120.286 49.9364 120.622C50.5431 120.949 51.0191 121.415 51.3644 122.022C51.7191 122.629 51.8964 123.329 51.8964 124.122C51.8964 124.915 51.7144 125.615 51.3504 126.222C50.9958 126.829 50.5104 127.3 49.8944 127.636C49.2878 127.963 48.6064 128.126 47.8504 128.126ZM47.8504 126.418C48.2051 126.418 48.5364 126.334 48.8444 126.166C49.1618 125.989 49.4138 125.727 49.6004 125.382C49.7871 125.037 49.8804 124.617 49.8804 124.122C49.8804 123.385 49.6844 122.82 49.2924 122.428C48.9098 122.027 48.4384 121.826 47.8784 121.826C47.3184 121.826 46.8471 122.027 46.4644 122.428C46.0911 122.82 45.9044 123.385 45.9044 124.122C45.9044 124.859 46.0864 125.429 46.4504 125.83C46.8238 126.222 47.2904 126.418 47.8504 126.418ZM55.2942 121.378C55.5462 121.005 55.8915 120.701 56.3302 120.468C56.7782 120.235 57.2868 120.118 57.8562 120.118C58.5188 120.118 59.1162 120.281 59.6482 120.608C60.1895 120.935 60.6142 121.401 60.9222 122.008C61.2395 122.605 61.3982 123.301 61.3982 124.094C61.3982 124.887 61.2395 125.592 60.9222 126.208C60.6142 126.815 60.1895 127.286 59.6482 127.622C59.1162 127.958 58.5188 128.126 57.8562 128.126C57.2775 128.126 56.7688 128.014 56.3302 127.79C55.9008 127.557 55.5555 127.258 55.2942 126.894V128H53.3342V117.64H55.2942V121.378ZM59.3962 124.094C59.3962 123.627 59.2982 123.226 59.1022 122.89C58.9155 122.545 58.6635 122.283 58.3462 122.106C58.0382 121.929 57.7022 121.84 57.3382 121.84C56.9835 121.84 56.6475 121.933 56.3302 122.12C56.0222 122.297 55.7702 122.559 55.5742 122.904C55.3875 123.249 55.2942 123.655 55.2942 124.122C55.2942 124.589 55.3875 124.995 55.5742 125.34C55.7702 125.685 56.0222 125.951 56.3302 126.138C56.6475 126.315 56.9835 126.404 57.3382 126.404C57.7022 126.404 58.0382 126.311 58.3462 126.124C58.6635 125.937 58.9155 125.671 59.1022 125.326C59.2982 124.981 59.3962 124.57 59.3962 124.094ZM63.8164 119.32C63.4618 119.32 63.1678 119.213 62.9344 118.998C62.7104 118.774 62.5984 118.499 62.5984 118.172C62.5984 117.845 62.7104 117.575 62.9344 117.36C63.1678 117.136 63.4618 117.024 63.8164 117.024C64.1618 117.024 64.4464 117.136 64.6704 117.36C64.8944 117.575 65.0064 117.845 65.0064 118.172C65.0064 118.499 64.8944 118.774 64.6704 118.998C64.4464 119.213 64.1618 119.32 63.8164 119.32ZM64.7824 129.274C64.7824 130.133 64.5678 130.749 64.1384 131.122C63.7184 131.505 63.1118 131.696 62.3184 131.696H61.4504V130.03H62.0104C62.3091 130.03 62.5191 129.969 62.6404 129.848C62.7618 129.736 62.8224 129.549 62.8224 129.288V120.244H64.7824V129.274ZM73.9289 123.954C73.9289 124.234 73.9103 124.486 73.8729 124.71H68.2029C68.2496 125.27 68.4456 125.709 68.7909 126.026C69.1363 126.343 69.5609 126.502 70.0649 126.502C70.7929 126.502 71.3109 126.189 71.6189 125.564H73.7329C73.5089 126.311 73.0796 126.927 72.4449 127.412C71.8103 127.888 71.0309 128.126 70.1069 128.126C69.3603 128.126 68.6883 127.963 68.0909 127.636C67.5029 127.3 67.0409 126.829 66.7049 126.222C66.3783 125.615 66.2149 124.915 66.2149 124.122C66.2149 123.319 66.3783 122.615 66.7049 122.008C67.0316 121.401 67.4889 120.935 68.0769 120.608C68.6649 120.281 69.3416 120.118 70.1069 120.118C70.8443 120.118 71.5023 120.277 72.0809 120.594C72.6689 120.911 73.1216 121.364 73.4389 121.952C73.7656 122.531 73.9289 123.198 73.9289 123.954ZM71.8989 123.394C71.8896 122.89 71.7076 122.489 71.3529 122.19C70.9983 121.882 70.5643 121.728 70.0509 121.728C69.5656 121.728 69.1549 121.877 68.8189 122.176C68.4923 122.465 68.2916 122.871 68.2169 123.394H71.8989ZM74.8556 124.122C74.8556 123.319 75.0189 122.619 75.3456 122.022C75.6722 121.415 76.1249 120.949 76.7036 120.622C77.2822 120.286 77.9449 120.118 78.6916 120.118C79.6529 120.118 80.4462 120.361 81.0716 120.846C81.7062 121.322 82.1309 121.994 82.3456 122.862H80.2316C80.1196 122.526 79.9282 122.265 79.6576 122.078C79.3962 121.882 79.0696 121.784 78.6776 121.784C78.1176 121.784 77.6742 121.989 77.3476 122.4C77.0209 122.801 76.8576 123.375 76.8576 124.122C76.8576 124.859 77.0209 125.433 77.3476 125.844C77.6742 126.245 78.1176 126.446 78.6776 126.446C79.4709 126.446 79.9889 126.091 80.2316 125.382H82.3456C82.1309 126.222 81.7062 126.889 81.0716 127.384C80.4369 127.879 79.6436 128.126 78.6916 128.126C77.9449 128.126 77.2822 127.963 76.7036 127.636C76.1249 127.3 75.6722 126.833 75.3456 126.236C75.0189 125.629 74.8556 124.925 74.8556 124.122ZM86.0634 121.854V125.606C86.0634 125.867 86.1241 126.059 86.2454 126.18C86.3761 126.292 86.5908 126.348 86.8894 126.348H87.7994V128H86.5674C84.9154 128 84.0894 127.197 84.0894 125.592V121.854H83.1654V120.244H84.0894V118.326H86.0634V120.244H87.7994V121.854H86.0634ZM92.1772 128.126C91.5425 128.126 90.9732 128.014 90.4692 127.79C89.9652 127.557 89.5638 127.244 89.2652 126.852C88.9758 126.46 88.8172 126.026 88.7892 125.55H90.7632C90.8005 125.849 90.9452 126.096 91.1972 126.292C91.4585 126.488 91.7805 126.586 92.1632 126.586C92.5365 126.586 92.8258 126.511 93.0312 126.362C93.2458 126.213 93.3532 126.021 93.3532 125.788C93.3532 125.536 93.2225 125.349 92.9612 125.228C92.7092 125.097 92.3032 124.957 91.7432 124.808C91.1645 124.668 90.6885 124.523 90.3152 124.374C89.9512 124.225 89.6338 123.996 89.3632 123.688C89.1018 123.38 88.9712 122.965 88.9712 122.442C88.9712 122.013 89.0925 121.621 89.3352 121.266C89.5872 120.911 89.9418 120.631 90.3992 120.426C90.8658 120.221 91.4118 120.118 92.0372 120.118C92.9612 120.118 93.6985 120.351 94.2492 120.818C94.7998 121.275 95.1032 121.896 95.1592 122.68H93.2832C93.2552 122.372 93.1245 122.129 92.8912 121.952C92.6672 121.765 92.3638 121.672 91.9812 121.672C91.6265 121.672 91.3512 121.737 91.1552 121.868C90.9685 121.999 90.8752 122.181 90.8752 122.414C90.8752 122.675 91.0058 122.876 91.2672 123.016C91.5285 123.147 91.9345 123.282 92.4852 123.422C93.0452 123.562 93.5072 123.707 93.8712 123.856C94.2352 124.005 94.5478 124.239 94.8092 124.556C95.0798 124.864 95.2198 125.275 95.2292 125.788C95.2292 126.236 95.1032 126.637 94.8512 126.992C94.6085 127.347 94.2538 127.627 93.7872 127.832C93.3298 128.028 92.7932 128.126 92.1772 128.126Z" fill="black"/>
</svg>
