<svg width="96" height="136" viewBox="0 0 96 136" fill="none" xmlns="http://www.w3.org/2000/svg">
<circle cx="48" cy="48" r="48" fill="#F2F0E4"/>
<path d="M28 37.0909H68V68H28V37.0909ZM31.6364 40.7273V64.3636H64.3636V40.7273H31.6364ZM37.0909 55.2727V49.8182H31.6364V46.1818H37.0909V31.6364H31.6364V64.3636H37.0909V58.9091H31.6364V55.2727H37.0909ZM46.1818 55.2727V49.8182H40.7273V55.2727H46.1818ZM46.1818 58.9091H40.7273V64.3636H46.1818V58.9091ZM49.8182 58.9091V68H28V28H49.8182V46.1818H53.4545V49.8182H49.8182V55.2727H53.4545V58.9091H49.8182V58.9091ZM46.1818 46.1818V31.6364H40.7273V46.1818H46.1818V46.1818ZM57.0909 46.1818H60.7273V49.8182H57.0909V46.1818ZM57.0909 55.2727H60.7273V58.9091H57.0909V55.2727Z" fill="#FACE28"/>
<path d="M26.7804 128.098C26.0991 128.098 25.4831 127.981 24.9324 127.748C24.3911 127.515 23.9618 127.179 23.6444 126.74C23.3271 126.301 23.1638 125.783 23.1544 125.186H25.2544C25.2824 125.587 25.4224 125.905 25.6744 126.138C25.9358 126.371 26.2904 126.488 26.7384 126.488C27.1958 126.488 27.5551 126.381 27.8164 126.166C28.0778 125.942 28.2084 125.653 28.2084 125.298C28.2084 125.009 28.1198 124.771 27.9424 124.584C27.7651 124.397 27.5411 124.253 27.2704 124.15C27.0091 124.038 26.6451 123.917 26.1784 123.786C25.5438 123.599 25.0258 123.417 24.6244 123.24C24.2324 123.053 23.8918 122.778 23.6024 122.414C23.3224 122.041 23.1824 121.546 23.1824 120.93C23.1824 120.351 23.3271 119.847 23.6164 119.418C23.9058 118.989 24.3118 118.662 24.8344 118.438C25.3571 118.205 25.9544 118.088 26.6264 118.088C27.6344 118.088 28.4511 118.335 29.0764 118.83C29.7111 119.315 30.0611 119.997 30.1264 120.874H27.9704C27.9518 120.538 27.8071 120.263 27.5364 120.048C27.2751 119.824 26.9251 119.712 26.4864 119.712C26.1038 119.712 25.7958 119.81 25.5624 120.006C25.3384 120.202 25.2264 120.487 25.2264 120.86C25.2264 121.121 25.3104 121.341 25.4784 121.518C25.6558 121.686 25.8704 121.826 26.1224 121.938C26.3838 122.041 26.7478 122.162 27.2144 122.302C27.8491 122.489 28.3671 122.675 28.7684 122.862C29.1698 123.049 29.5151 123.329 29.8044 123.702C30.0938 124.075 30.2384 124.565 30.2384 125.172C30.2384 125.695 30.1031 126.18 29.8324 126.628C29.5618 127.076 29.1651 127.435 28.6424 127.706C28.1198 127.967 27.4991 128.098 26.7804 128.098ZM31.4337 124.122C31.4337 123.319 31.597 122.619 31.9237 122.022C32.2503 121.415 32.703 120.949 33.2817 120.622C33.8603 120.286 34.523 120.118 35.2697 120.118C36.231 120.118 37.0243 120.361 37.6497 120.846C38.2843 121.322 38.709 121.994 38.9237 122.862H36.8097C36.6977 122.526 36.5063 122.265 36.2357 122.078C35.9743 121.882 35.6477 121.784 35.2557 121.784C34.6957 121.784 34.2523 121.989 33.9257 122.4C33.599 122.801 33.4357 123.375 33.4357 124.122C33.4357 124.859 33.599 125.433 33.9257 125.844C34.2523 126.245 34.6957 126.446 35.2557 126.446C36.049 126.446 36.567 126.091 36.8097 125.382H38.9237C38.709 126.222 38.2843 126.889 37.6497 127.384C37.015 127.879 36.2217 128.126 35.2697 128.126C34.523 128.126 33.8603 127.963 33.2817 127.636C32.703 127.3 32.2503 126.833 31.9237 126.236C31.597 125.629 31.4337 124.925 31.4337 124.122ZM47.5696 123.954C47.5696 124.234 47.5509 124.486 47.5136 124.71H41.8436C41.8902 125.27 42.0862 125.709 42.4316 126.026C42.7769 126.343 43.2016 126.502 43.7056 126.502C44.4336 126.502 44.9516 126.189 45.2596 125.564H47.3736C47.1496 126.311 46.7202 126.927 46.0856 127.412C45.4509 127.888 44.6716 128.126 43.7476 128.126C43.0009 128.126 42.3289 127.963 41.7316 127.636C41.1436 127.3 40.6816 126.829 40.3456 126.222C40.0189 125.615 39.8556 124.915 39.8556 124.122C39.8556 123.319 40.0189 122.615 40.3456 122.008C40.6722 121.401 41.1296 120.935 41.7176 120.608C42.3056 120.281 42.9822 120.118 43.7476 120.118C44.4849 120.118 45.1429 120.277 45.7216 120.594C46.3096 120.911 46.7622 121.364 47.0796 121.952C47.4062 122.531 47.5696 123.198 47.5696 123.954ZM45.5396 123.394C45.5302 122.89 45.3482 122.489 44.9936 122.19C44.6389 121.882 44.2049 121.728 43.6916 121.728C43.2062 121.728 42.7956 121.877 42.4596 122.176C42.1329 122.465 41.9322 122.871 41.8576 123.394H45.5396ZM53.2982 120.132C54.2222 120.132 54.9688 120.426 55.5382 121.014C56.1075 121.593 56.3922 122.405 56.3922 123.45V128H54.4322V123.716C54.4322 123.1 54.2782 122.629 53.9702 122.302C53.6622 121.966 53.2422 121.798 52.7102 121.798C52.1688 121.798 51.7395 121.966 51.4222 122.302C51.1142 122.629 50.9602 123.1 50.9602 123.716V128H49.0002V120.244H50.9602V121.21C51.2215 120.874 51.5528 120.613 51.9542 120.426C52.3648 120.23 52.8128 120.132 53.2982 120.132ZM65.466 123.954C65.466 124.234 65.4474 124.486 65.41 124.71H59.74C59.7867 125.27 59.9827 125.709 60.328 126.026C60.6734 126.343 61.098 126.502 61.602 126.502C62.33 126.502 62.848 126.189 63.156 125.564H65.27C65.046 126.311 64.6167 126.927 63.982 127.412C63.3474 127.888 62.568 128.126 61.644 128.126C60.8974 128.126 60.2254 127.963 59.628 127.636C59.04 127.3 58.578 126.829 58.242 126.222C57.9154 125.615 57.752 124.915 57.752 124.122C57.752 123.319 57.9154 122.615 58.242 122.008C58.5687 121.401 59.026 120.935 59.614 120.608C60.202 120.281 60.8787 120.118 61.644 120.118C62.3814 120.118 63.0394 120.277 63.618 120.594C64.206 120.911 64.6587 121.364 64.976 121.952C65.3027 122.531 65.466 123.198 65.466 123.954ZM63.436 123.394C63.4267 122.89 63.2447 122.489 62.89 122.19C62.5354 121.882 62.1014 121.728 61.588 121.728C61.1027 121.728 60.692 121.877 60.356 122.176C60.0294 122.465 59.8287 122.871 59.754 123.394H63.436ZM69.8647 128.126C69.23 128.126 68.6607 128.014 68.1567 127.79C67.6527 127.557 67.2513 127.244 66.9527 126.852C66.6633 126.46 66.5047 126.026 66.4767 125.55H68.4507C68.488 125.849 68.6327 126.096 68.8847 126.292C69.146 126.488 69.468 126.586 69.8507 126.586C70.224 126.586 70.5133 126.511 70.7187 126.362C70.9333 126.213 71.0407 126.021 71.0407 125.788C71.0407 125.536 70.91 125.349 70.6487 125.228C70.3967 125.097 69.9907 124.957 69.4307 124.808C68.852 124.668 68.376 124.523 68.0027 124.374C67.6387 124.225 67.3213 123.996 67.0507 123.688C66.7893 123.38 66.6587 122.965 66.6587 122.442C66.6587 122.013 66.78 121.621 67.0227 121.266C67.2747 120.911 67.6293 120.631 68.0867 120.426C68.5533 120.221 69.0993 120.118 69.7247 120.118C70.6487 120.118 71.386 120.351 71.9367 120.818C72.4873 121.275 72.7907 121.896 72.8467 122.68H70.9707C70.9427 122.372 70.812 122.129 70.5787 121.952C70.3547 121.765 70.0513 121.672 69.6687 121.672C69.314 121.672 69.0387 121.737 68.8427 121.868C68.656 121.999 68.5627 122.181 68.5627 122.414C68.5627 122.675 68.6933 122.876 68.9547 123.016C69.216 123.147 69.622 123.282 70.1727 123.422C70.7327 123.562 71.1947 123.707 71.5587 123.856C71.9227 124.005 72.2353 124.239 72.4967 124.556C72.7673 124.864 72.9073 125.275 72.9167 125.788C72.9167 126.236 72.7907 126.637 72.5387 126.992C72.296 127.347 71.9413 127.627 71.4747 127.832C71.0173 128.028 70.4807 128.126 69.8647 128.126Z" fill="black"/>
</svg>
