<svg width="32" height="32" viewBox="0 0 32 32" fill="none" xmlns="http://www.w3.org/2000/svg">
<rect width="32" height="32" rx="5" fill="#121127" fill-opacity="0.08"/>
<path d="M22 14.6409C22 10.9791 19.0841 8 15.5 8C11.9159 8 9 10.9791 9 14.6409C9 18.0034 11.4593 20.7883 14.6364 21.2214V22.6651H12.0054C11.5285 22.6651 11.1418 23.06 11.1418 23.5475C11.1418 24.0349 11.5285 24.4298 12.0054 24.4298H14.6364V27.1176C14.6364 27.6051 15.0231 28 15.5 28C15.9769 28 16.3636 27.6051 16.3636 27.1176V24.4298H18.9946C19.4715 24.4298 19.8582 24.0349 19.8582 23.5475C19.8582 23.06 19.4715 22.6651 18.9946 22.6651H16.3636V21.2214C19.5407 20.7883 22 18.0034 22 14.6409ZM15.5 19.5171C12.8684 19.5171 10.7273 17.3296 10.7273 14.6409C10.7273 11.9522 12.8684 9.7647 15.5 9.7647C18.1316 9.7647 20.2727 11.9522 20.2727 14.6409C20.2727 17.3296 18.1317 19.5171 15.5 19.5171Z" fill="#B15B90"/>
<path d="M20.0908 11.0707L20.0555 11.0354L18.9646 9.94452L18.9293 9.90916L18.9646 9.87381L22.2457 6.59273L21.0308 6.59275C20.8039 6.59275 20.5985 6.50074 20.4499 6.3522C20.3014 6.20366 20.2094 5.9982 20.2095 5.77144M20.0908 11.0707L24.715 5.2475M20.0908 11.0707L20.1262 11.0354L23.4073 7.75427M20.0908 11.0707L23.4073 7.75427M20.2095 5.77144C20.2093 5.31788 20.577 4.95019 21.0306 4.95009L21.0306 4.95009L24.1517 4.95C24.3888 4.95 24.6004 5.05184 24.75 5.21169M20.2095 5.77144C20.2095 5.77143 20.2095 5.77142 20.2095 5.77142L20.2595 5.77144M20.2095 5.77144C20.2095 5.77144 20.2095 5.77145 20.2095 5.77146L20.2595 5.77144M24.75 5.21169C24.7506 5.21227 24.7511 5.21286 24.7517 5.21344L24.715 5.2475M24.75 5.21169C24.7497 5.21139 24.7494 5.21115 24.7491 5.2109L24.715 5.2475M24.75 5.21169C24.7509 5.21243 24.7524 5.21352 24.7554 5.21577L24.7555 5.21588C24.759 5.21849 24.7651 5.22303 24.771 5.22898L24.7711 5.22906C24.777 5.23494 24.7815 5.24096 24.7841 5.24443L24.7842 5.2446C24.7865 5.24761 24.7875 5.24906 24.7883 5.24998M24.715 5.2475C24.7181 5.25034 24.7214 5.25279 24.7247 5.25524C24.7284 5.25807 24.7322 5.2609 24.7357 5.26433C24.7391 5.26775 24.7419 5.27152 24.7447 5.2753C24.7472 5.27859 24.7496 5.28189 24.7525 5.28495M24.7883 5.24998C24.7877 5.24943 24.7871 5.24889 24.7866 5.24835L24.7525 5.28495M24.7883 5.24998C24.7886 5.25034 24.7889 5.25062 24.7891 5.25088L24.7525 5.28495M24.7883 5.24998C24.9482 5.39957 25.05 5.6112 25.05 5.84827V5.84828L25.0499 8.96939V8.9694C25.0498 9.42301 24.6821 9.79074 24.2285 9.79055M24.7525 5.28495C24.9039 5.42581 25 5.62513 25 5.84828L24.2285 9.79055M20.2595 5.77144C20.2593 5.34551 20.6046 5.00018 21.0306 5.00009L20.2595 5.77144ZM23.4073 7.75427L23.4072 8.96916L23.4072 8.96923L23.4073 7.75427ZM23.6832 9.51473L23.6478 9.55004C23.6478 9.55005 23.6478 9.55007 23.6478 9.55008C23.6478 9.5501 23.6478 9.55012 23.6479 9.55013L23.6832 9.51473ZM23.6832 9.51473C23.7547 9.58646 23.8397 9.64334 23.9333 9.68209C24.0269 9.72085 24.1273 9.74071 24.2286 9.74055M23.6832 9.51473L24.2286 9.74055M24.2286 9.74055L24.2285 9.79055M24.2286 9.74055L24.2286 9.79055C24.2286 9.79055 24.2286 9.79055 24.2285 9.79055M22.3664 6.54272L22.2957 6.54272L22.3164 6.59272L22.3664 6.54272Z" fill="#B15B90" stroke="#B15B90" stroke-width="0.1"/>
</svg>
