<svg width="32" height="32" viewBox="0 0 32 32" fill="none" xmlns="http://www.w3.org/2000/svg">
<rect width="32" height="32" rx="5" fill="#121127" fill-opacity="0.08"/>
<path d="M20.0567 13.2874L22.9527 10.3914L22.9526 12.0259C22.9524 12.1499 22.9768 12.2728 23.0242 12.3873C23.0717 12.5019 23.1413 12.6059 23.2291 12.6935C23.3166 12.7813 23.4207 12.8509 23.5352 12.8983C23.6498 12.9457 23.7726 12.9701 23.8965 12.9699C24.4178 12.9701 24.8404 12.5475 24.8405 12.0261L24.8406 8.20662C24.8406 7.93353 24.723 7.68961 24.5377 7.51723C24.5302 7.50918 24.5249 7.49983 24.5171 7.492C24.5093 7.48417 24.4999 7.4789 24.4919 7.4714C24.3195 7.28615 24.0756 7.16852 23.8025 7.16852L19.983 7.16863C19.4616 7.16874 19.039 7.59134 19.0392 8.11258C19.0391 8.3732 19.1448 8.60925 19.3156 8.78003C19.4864 8.95081 19.7224 9.05649 19.9832 9.05649L21.6177 9.05646L18.7217 11.9524C15.9387 9.82466 11.9314 10.0306 9.38785 12.5742C6.61808 15.344 6.61808 19.8511 9.38807 22.621C12.1581 25.391 16.6651 25.391 19.4349 22.6213C21.9785 20.0777 22.1844 16.0704 20.0567 13.2874ZM10.723 21.2862C8.68908 19.2523 8.68889 15.9431 10.7227 13.9092C12.7566 11.8753 16.0661 11.8753 18.1 13.9092C20.1339 15.9431 20.1339 19.2525 18.1 21.2864C16.0661 23.3203 12.7569 23.32 10.723 21.2862Z" fill="#A22873" fill-opacity="0.7"/>
</svg>
