<svg width="96" height="136" viewBox="0 0 96 136" fill="none" xmlns="http://www.w3.org/2000/svg">
<circle cx="48" cy="48" r="48" fill="#E7DEEF"/>
<path d="M59.5804 30H57.0586C56.3916 30 55.7481 30.2832 55.3175 30.7891C54.0258 32.3023 50.3307 33.2819 48.0031 33.2819C45.6754 33.2819 41.9803 32.3023 40.6886 30.7891C40.2533 30.2827 39.6145 30 38.9475 30H36.421C35.8062 30 35.2191 30.2412 34.7838 30.678L26.4047 39.0385C25.8651 39.5767 25.8651 40.4452 26.4047 40.9834L31.5142 46.0851C32.0538 46.6238 32.9243 46.6238 33.4635 46.0851L33.6336 45.9182C33.8183 45.7369 34.1305 45.8624 34.1305 46.1225V63.9066C34.1305 65.0624 35.0673 66 36.2264 66H59.7736C60.9327 66 61.8695 65.0624 61.8695 63.9066V46.1179C61.8695 45.8577 62.1817 45.7277 62.3664 45.9136L62.5365 46.081C63.0762 46.6192 63.9467 46.6192 64.4858 46.081L69.5953 40.9792C70.1349 40.441 70.1349 39.5726 69.5953 39.0344L61.2176 30.6733C60.7823 30.2417 60.191 30 59.5804 30V30Z" fill="#A22873" fill-opacity="0.7"/>
<path d="M23.3913 118.228L20.6613 128H18.3513L16.5173 121.042L14.5993 128L12.3033 128.014L9.67128 118.228H11.7713L13.4933 125.816L15.4813 118.228H17.6653L19.5413 125.774L21.2773 118.228H23.3913ZM31.8811 123.954C31.8811 124.234 31.8624 124.486 31.8251 124.71H26.1551C26.2017 125.27 26.3977 125.709 26.7431 126.026C27.0884 126.343 27.5131 126.502 28.0171 126.502C28.7451 126.502 29.2631 126.189 29.5711 125.564H31.6851C31.4611 126.311 31.0317 126.927 30.3971 127.412C29.7624 127.888 28.9831 128.126 28.0591 128.126C27.3124 128.126 26.6404 127.963 26.0431 127.636C25.4551 127.3 24.9931 126.829 24.6571 126.222C24.3304 125.615 24.1671 124.915 24.1671 124.122C24.1671 123.319 24.3304 122.615 24.6571 122.008C24.9837 121.401 25.4411 120.935 26.0291 120.608C26.6171 120.281 27.2937 120.118 28.0591 120.118C28.7964 120.118 29.4544 120.277 30.0331 120.594C30.6211 120.911 31.0737 121.364 31.3911 121.952C31.7177 122.531 31.8811 123.198 31.8811 123.954ZM29.8511 123.394C29.8417 122.89 29.6597 122.489 29.3051 122.19C28.9504 121.882 28.5164 121.728 28.0031 121.728C27.5177 121.728 27.1071 121.877 26.7711 122.176C26.4444 122.465 26.2437 122.871 26.1691 123.394H29.8511ZM32.8077 124.094C32.8077 123.31 32.9617 122.615 33.2697 122.008C33.587 121.401 34.0117 120.935 34.5437 120.608C35.085 120.281 35.687 120.118 36.3497 120.118C36.9284 120.118 37.4324 120.235 37.8617 120.468C38.3004 120.701 38.6504 120.995 38.9117 121.35V120.244H40.8857V128H38.9117V126.866C38.6597 127.23 38.3097 127.533 37.8617 127.776C37.423 128.009 36.9144 128.126 36.3357 128.126C35.6824 128.126 35.085 127.958 34.5437 127.622C34.0117 127.286 33.587 126.815 33.2697 126.208C32.9617 125.592 32.8077 124.887 32.8077 124.094ZM38.9117 124.122C38.9117 123.646 38.8184 123.24 38.6317 122.904C38.445 122.559 38.193 122.297 37.8757 122.12C37.5584 121.933 37.2177 121.84 36.8537 121.84C36.4897 121.84 36.1537 121.929 35.8457 122.106C35.5377 122.283 35.2857 122.545 35.0897 122.89C34.903 123.226 34.8097 123.627 34.8097 124.094C34.8097 124.561 34.903 124.971 35.0897 125.326C35.2857 125.671 35.5377 125.937 35.8457 126.124C36.163 126.311 36.499 126.404 36.8537 126.404C37.2177 126.404 37.5584 126.315 37.8757 126.138C38.193 125.951 38.445 125.69 38.6317 125.354C38.8184 125.009 38.9117 124.598 38.9117 124.122ZM44.76 121.448C45.012 121.037 45.3387 120.715 45.74 120.482C46.1507 120.249 46.6173 120.132 47.14 120.132V122.19H46.622C46.006 122.19 45.5393 122.335 45.222 122.624C44.914 122.913 44.76 123.417 44.76 124.136V128H42.8V120.244H44.76V121.448ZM47.9561 124.094C47.9561 123.31 48.1101 122.615 48.4181 122.008C48.7355 121.401 49.1601 120.935 49.6921 120.608C50.2335 120.281 50.8355 120.118 51.4981 120.118C52.0768 120.118 52.5808 120.235 53.0101 120.468C53.4488 120.701 53.7988 120.995 54.0601 121.35V120.244H56.0341V128H54.0601V126.866C53.8081 127.23 53.4581 127.533 53.0101 127.776C52.5715 128.009 52.0628 128.126 51.4841 128.126C50.8308 128.126 50.2335 127.958 49.6921 127.622C49.1601 127.286 48.7355 126.815 48.4181 126.208C48.1101 125.592 47.9561 124.887 47.9561 124.094ZM54.0601 124.122C54.0601 123.646 53.9668 123.24 53.7801 122.904C53.5935 122.559 53.3415 122.297 53.0241 122.12C52.7068 121.933 52.3661 121.84 52.0021 121.84C51.6381 121.84 51.3021 121.929 50.9941 122.106C50.6861 122.283 50.4341 122.545 50.2381 122.89C50.0515 123.226 49.9581 123.627 49.9581 124.094C49.9581 124.561 50.0515 124.971 50.2381 125.326C50.4341 125.671 50.6861 125.937 50.9941 126.124C51.3115 126.311 51.6475 126.404 52.0021 126.404C52.3661 126.404 52.7068 126.315 53.0241 126.138C53.3415 125.951 53.5935 125.69 53.7801 125.354C53.9668 125.009 54.0601 124.598 54.0601 124.122ZM59.9084 121.378C60.1604 121.005 60.5058 120.701 60.9444 120.468C61.3924 120.235 61.9011 120.118 62.4704 120.118C63.1331 120.118 63.7304 120.281 64.2624 120.608C64.8038 120.935 65.2284 121.401 65.5364 122.008C65.8538 122.605 66.0124 123.301 66.0124 124.094C66.0124 124.887 65.8538 125.592 65.5364 126.208C65.2284 126.815 64.8038 127.286 64.2624 127.622C63.7304 127.958 63.1331 128.126 62.4704 128.126C61.8918 128.126 61.3831 128.014 60.9444 127.79C60.5151 127.557 60.1698 127.258 59.9084 126.894V128H57.9484V117.64H59.9084V121.378ZM64.0104 124.094C64.0104 123.627 63.9124 123.226 63.7164 122.89C63.5298 122.545 63.2778 122.283 62.9604 122.106C62.6524 121.929 62.3164 121.84 61.9524 121.84C61.5978 121.84 61.2618 121.933 60.9444 122.12C60.6364 122.297 60.3844 122.559 60.1884 122.904C60.0018 123.249 59.9084 123.655 59.9084 124.122C59.9084 124.589 60.0018 124.995 60.1884 125.34C60.3844 125.685 60.6364 125.951 60.9444 126.138C61.2618 126.315 61.5978 126.404 61.9524 126.404C62.3164 126.404 62.6524 126.311 62.9604 126.124C63.2778 125.937 63.5298 125.671 63.7164 125.326C63.9124 124.981 64.0104 124.57 64.0104 124.094ZM69.3967 117.64V128H67.4367V117.64H69.3967ZM78.5432 123.954C78.5432 124.234 78.5245 124.486 78.4872 124.71H72.8172C72.8639 125.27 73.0599 125.709 73.4052 126.026C73.7505 126.343 74.1752 126.502 74.6792 126.502C75.4072 126.502 75.9252 126.189 76.2332 125.564H78.3472C78.1232 126.311 77.6939 126.927 77.0592 127.412C76.4245 127.888 75.6452 128.126 74.7212 128.126C73.9745 128.126 73.3025 127.963 72.7052 127.636C72.1172 127.3 71.6552 126.829 71.3192 126.222C70.9925 125.615 70.8292 124.915 70.8292 124.122C70.8292 123.319 70.9925 122.615 71.3192 122.008C71.6459 121.401 72.1032 120.935 72.6912 120.608C73.2792 120.281 73.9559 120.118 74.7212 120.118C75.4585 120.118 76.1165 120.277 76.6952 120.594C77.2832 120.911 77.7359 121.364 78.0532 121.952C78.3799 122.531 78.5432 123.198 78.5432 123.954ZM76.5132 123.394C76.5039 122.89 76.3219 122.489 75.9672 122.19C75.6125 121.882 75.1785 121.728 74.6652 121.728C74.1799 121.728 73.7692 121.877 73.4332 122.176C73.1065 122.465 72.9059 122.871 72.8312 123.394H76.5132ZM82.9418 128.126C82.3071 128.126 81.7378 128.014 81.2338 127.79C80.7298 127.557 80.3285 127.244 80.0298 126.852C79.7405 126.46 79.5818 126.026 79.5538 125.55H81.5278C81.5651 125.849 81.7098 126.096 81.9618 126.292C82.2231 126.488 82.5451 126.586 82.9278 126.586C83.3011 126.586 83.5905 126.511 83.7958 126.362C84.0105 126.213 84.1178 126.021 84.1178 125.788C84.1178 125.536 83.9871 125.349 83.7258 125.228C83.4738 125.097 83.0678 124.957 82.5078 124.808C81.9291 124.668 81.4531 124.523 81.0798 124.374C80.7158 124.225 80.3985 123.996 80.1278 123.688C79.8665 123.38 79.7358 122.965 79.7358 122.442C79.7358 122.013 79.8571 121.621 80.0998 121.266C80.3518 120.911 80.7065 120.631 81.1638 120.426C81.6305 120.221 82.1765 120.118 82.8018 120.118C83.7258 120.118 84.4631 120.351 85.0138 120.818C85.5645 121.275 85.8678 121.896 85.9238 122.68H84.0478C84.0198 122.372 83.8891 122.129 83.6558 121.952C83.4318 121.765 83.1285 121.672 82.7458 121.672C82.3911 121.672 82.1158 121.737 81.9198 121.868C81.7331 121.999 81.6398 122.181 81.6398 122.414C81.6398 122.675 81.7705 122.876 82.0318 123.016C82.2931 123.147 82.6991 123.282 83.2498 123.422C83.8098 123.562 84.2718 123.707 84.6358 123.856C84.9998 124.005 85.3125 124.239 85.5738 124.556C85.8445 124.864 85.9845 125.275 85.9938 125.788C85.9938 126.236 85.8678 126.637 85.6158 126.992C85.3731 127.347 85.0185 127.627 84.5518 127.832C84.0945 128.028 83.5578 128.126 82.9418 128.126Z" fill="black"/>
</svg>
